<svg xmlns="http://www.w3.org/2000/svg" xml:space="preserve" width="229.85" height="244.023">

    <style>
       

        path {
           
        }

        #group-world g path {
           
            stroke: none;
        }

        #group-world path#outline-world {
           
            stroke-width: 25px;
        }

    </style>

  <defs>
    <clipPath clipPathUnits="userSpaceOnUse" id="f">
      <path d="M1369.797 552.883v199.262h123.17a37.716 37.716 0 0 1-.614-5.978c-.01-.413-.021-.823-.035-1.236-.028-.739-.052-1.481-.116-2.218-.315-2.098-.85-4.168-.86-6.306-.017-2.24-.048-4.476-.095-6.716-.08-3.683-.193-7.37-.396-11.05-.249-4.366-.585-8.733-.444-13.11.054-4.16.136-8.318.26-12.476.263-8.198.644-16.39 1.235-24.57.757-10.393 1.693-20.774 2.491-31.163v-.362c0-6.907 0-13.814.01-20.72 0-6.254.011-12.51.035-18.763.01-.8.038-1.601.048-2.402-.222-5.619-.496-11.233-.894-16.844-.475-6.457-1.202-12.943-.921-19.424.156-1.998.399-3.99.86-5.924z"/>
    </clipPath>
    <clipPath clipPathUnits="userSpaceOnUse" id="e">
      <path d="M1267.715 747.6V1563.3h561.382V768.457c-6.028 1.062-12.182 1.231-18.29 1.433-.574.021-1.147.025-1.72.041-4.115 2.45-10.049 3.676-17.698 2.62-3.567-.491-7.144-.98-10.66-1.774-4.072-1.076-13.323-3.034-13.145-8.053.02-.638.059-1.197.089-1.802h-.218c-5.718-.115-11.48-.083-17.145-.949-11.52-1.76-17.7-6.873-19.205-12.373h-151.46c.786.513 1.524 1.014 2.627 1.733 7.263 4.762 14.683 9.237 22.407 13.207 5.897 3.179 12.356 4.994 18.768 6.797 5.66 1.485 11.358 2.783 17.131 3.734 3.525.632 7.048 1.27 10.586 1.829 1.29.199.588.08 2.088.361 2.909.544 4.857 1.273 6.102 2.137 3.725-1.51 7.804-2.727 11.275-2.143 3.027.509 6.277 1.132 8.701 3.016 2.922 2.272 4.423 5.938 6.634 8.907.19 1.744.452 3.483.621 5.228.968-.36 1.926-.742 2.9-1.085 7.18-2.825 14.212-5.974 21.158-9.33 2.813-1.124 7.955-3.455 10.62-2.505 4.902 1.747 9.971 4.335 13.104 8.49 3.71 4.923 1.515 11.348-.696 16.032-1.814 3.312-3.76 6.545-5.972 9.61-2.13 3.342-4.26 6.682-6.45 9.985-2.033 2.87-4.268 5.589-6.777 8.06-3.252 3.23-6.714 6.246-9.903 9.541-4.277 4.196-8.362 8.591-12.34 13.07-4.41 5.229-8.586 10.713-13.67 15.316-5.643 4.565-11.765 8.054-17.95 11.827-7.404 4.688-14.74 9.543-21.403 15.26-5.592 4.619-11.21 9.293-18.018 12.033-7.128 3.383-14.305 6.655-21.464 9.972-5.054 2.45-9.953 5.242-15.159 7.357-3.78 1.436-7.609 2.746-11.452 4.006-6.721 2.033-13.616 3.435-20.666 3.542-6.679.061-13.372-.11-20.024-.744-5.591-.82-10.123-2.114-14.81-5.33-3.05-1.931-6.142-3.793-9.33-5.487-4.244-2.18-8.613-4.154-12.66-6.689-5.451-4.098-8.35-8.001-9.617-14.748-.656-4.629-.636-9.264-.416-13.93.204-8.6.444-17.199.655-25.799.157-8.424.067-16.853.116-25.28.024-6.724.047-13.45.205-20.174.19-6.586.452-13.18 1.262-19.724 1.113-7.99 2.742-15.92 6-23.349.33-.709.667-1.415.989-2.129-11.762-4.62-13.892-15.79-6.497-22.604zm284.015 0c.242.55.455 1.126.628 1.747 1.57 1.064 3.115 2.435 4.586 4.15 8.347.986 17.205 1.488 16.148-5.897zm230.978 22.14c-.351.021-.695.043-.949.055.384.08.767.19.949-.055zm-125.743 20.448c.028-.164-.246.264-.253.43-.011.159.01.318.01.477.074-.304.19-.598.246-.907zm-108.36 37.448c-1.844.494-2.487 1.393 0 0z"/>
    </clipPath>
    <clipPath clipPathUnits="userSpaceOnUse" id="c">
      <path d="M144.327 16.5v749.502h705.968V16.5Zm286.729 392.604c4.02-.025 6.384 5.591 8.152 13.125a100.2 100.2 0 0 1 7.421-4.187l2.436-1.182c.103-.07.17-.12.276-.192.028-.018-.037.055-.054.084l-.222.108c-4.598 3.125-7.664 5.256-9.287 7.895.327 1.57.585 3.33.882 4.991.216-.047.484-.045.702-.09 4.332-2.433 10.729-5.905 12.394-6.113.159-.018.277-.015.342.03a472.67 472.67 0 0 0 6.934 4.662h2.766c-.718-1.619-1.395-3.258-2.52-4.721-2.8-3.645-7.05-5.95-10.978-8.339-1.184-.72-2.661-.73-4.037-.983l-.054.006c-.513.05-1.032.082-1.548.066-.062-.002-.205-.113-.144-.12.432-.056.873-.022 1.308-.031.143.034.293.051.438.078 3.124-.308 6.221-.864 9.334-1.254 6.32-.534 19.594-2.369 22.436 4.511 1.979 4.79 3.037 8.358 4.301 12.196 37.941 8.338 33.822 50.904-12.351 51.812 10.284 13.293 20.536 24.284-5.1 18.873-6.424-1.356-12.038-4.523-17.414-8.099-1.22.082-2.557.127-4.013.126h-1.884c-6.861-.445-15.778-2.236-20.138-8.302-6.777-9.428-8.847-15.09-7.595-22.742-.748-4.278-.706-8.675 1.098-12.922-.912-2.46-1.68-5.082-2.076-8.518-.943-8.208 2.61-15.017 7.037-21.278 4.754-6.725 8.357-9.473 11.158-9.49z"/>
    </clipPath>
    <clipPath clipPathUnits="userSpaceOnUse" id="g">
      <path d="M279.756 288.032v1553.51h1561.79V288.031H1327.23c-1.36 5.109-4.25 10.76-6.939 16.33 17.24 5.82 17.102 3.683 12.85 15.344a53.98 53.98 0 0 1-4.758 6.855c-.124.227-.043.061-.273.482a379.17 379.17 0 0 1-3.962 7.106c-.666 3.65.318 5.498-2.054 10.985-1.196 2.765-2.373 5.552-3.983 8.112-.107.155-.203.295-.314.462.01 6.256-.032 12.514-.231 18.761-.665 9.4-1.92 18.765-3.647 28.027-1.943 9.258-4.063 18.47-6.08 27.712-2.809 13.752-6.996 27.118-11.843 40.27-3.149 8.49-6.564 16.88-9.895 25.301-3.163 7.967-6.56 15.818-10.146 23.604-4.849 10.979-9.924 21.866-14.904 32.785-4.054 9.306-8.727 18.322-12.913 27.566-4.176 9.61-7.994 19.36-11.97 29.054-4.247 10.275-9.392 20.139-14.044 30.228-4.66 10.166-9.323 20.312-14.38 30.29-5.55 10.845-11.894 21.26-18.3 31.612-2.994 5.516-6.672 10.718-9.37 16.393-5.822 11.055-14.124 20.482-22.662 29.494-10.806 10.519-21.364 21.265-32.072 31.884-7.139 7.765-14.969 14.689-23.688 20.606-9.585 5.912-20.098 9.986-30.73 13.563-6.754 1.914-13.548 3.784-20.355 5.513-7.898 2.454-15.924 1.727-23.94.44-10.023 1.762-22.7-.128-37.124-7.484-1.188-.605-.58-.3-1.824-.922-2.106-1.031-4.205-1.955-6.351-2.64-7.087-2.154-14.12-4.842-19.936-9.665-5.728-4.99-10.426-10.758-13.877-17.545-2.405-4.412-5.691-10.265-7.001-15.722-1.47-6.454-2.433-12.938-2.076-19.579v-10.502c0-19.078 5.662-32.522 13.647-40.416 1.996-7.771 2.564-17.486 6.54-22.115-.61-9.34-1.242-18.675-1.656-28.027-.391-12.069-.855-24.148-.587-36.223-.021-6.836 1.364-13.648 1.07-20.48-.224-12.452-1.576-24.849-2.81-37.23a679.35 679.35 0 0 1-2.348-29.935c-.53-4.393-1.118-8.773-1.928-13.122-1.59-8.388-2.08-16.917-2.495-25.428-.702-6.848-1.397-13.698-1.907-20.564-1.265-17.024 2.346-29.876 8.406-38.466-.113-1.853-1.06-2.669-1.09-4.612-.01-.792.01-4.731 0-4.255-.12-.394-.272-.912-.357-1.174-.31-.99-.611-1.986-.922-2.977.16.755.183.745-.167-.043-1.99-5.25-4.345-10.953-6.373-18.3.011.13.086.5.043.377-2.449-6.529-3.693-13.4-4.695-20.27-1.45-6.183-2.362-12.485-3.124-18.783-.55-7.883-1.045-15.735-1.97-23.583a465.258 465.258 0 0 1-1.426-13.688c-.271-.978-.544-1.953-.796-2.935-.623-2.424-.725-3.215-1.258-5.89-.82-4.67-1.174-9.401-1.446-14.13-.043-.836-.033-1.631-.065-2.452zm784.312 0c3.472 3.155 6.077 8.426 8.72 13.542 5.156-4.114 11.09-6.126 17.064-5.786 10.794.615 21.644 8.798 27.985 25.428.043-1.621.075-3.241.125-4.864.512-16.27 8.992-24.135 17.21-23.876 3.477.11 6.899 1.694 9.664 4.696.856-3.17 1.754-6.282 2.788-9.14zm-130.156 21.277c-.338 1.214-.032 2.325.314 3.438-.096-1.15-.224-2.288-.314-3.438zm653.694 72.824c15.754-.842 29.852 13.337 29.18 39.828 4.873-1.893 10.257-8.015 14.632-8.05 25.974-.201 40.475 30.096 11.047 63.832-.054.064-.097.128-.147.188 3.952 3.742 7.891 7.499 11.823 11.257 1.782-.534 3.885-2.333 5.492-2.39 9.564-.333 12.246 7.77 9.685 17.127 1.727 1.698 3.482 3.364 5.198 5.073 10.548 10.684 21.368 21.117 31.57 32.135 7.592 8.316 14.143 17.486 20.69 26.623 9.636 13.447 12.476 25.359 12.053 35.657 4.02 5.804 8.044 11.61 12.2 17.315 6.666 9.047 13.287 18.127 19.79 27.293 5.905 8.366 11.568 16.879 16.329 25.952 1.398 2.4 2.835 4.78 4.255 7.169 3.959-1.438 7.492-2.25 10.544-2.348 13.717-.44 17.798 13.244 7.966 46.411-3.512 11.85-11.658 21.196-19.264 30.626-5.536 6.761-11.412 13.255-17.483 19.537-2.482 2.743-4.902 5.533-7.379 8.28-2.455 2.951-5.296 5.477-8.091 8.092-.229.214.492-.39.734-.587-12.412 11.234 5.46-4.793-5.933 5.45 1.506-1.123 4.87-4.587-1.278 1.3-1.123 1.025-1.7 1.573-3.25 2.85-2.495 2.03-4.882 4.172-7.357 6.227-2.655 2.846-5.716 5.317-8.679 7.84-2.926 2.57-5.901 5.11-8.469 8.05-3.197 3.15-6.206 6.48-9.349 9.684-1.667 1.905 1.007-1.18.315-.251-1.904 2.551-4.175 4.939-6.268 7.337-.7.74-1.39 1.487-2.097 2.222 0 .004-7.468 7.22-5.45 5.492-3.013 3.4-6.224 6.627-9.559 9.768-3.74 3.341-7.766 6.334-11.802 9.308 5.428-5.237 3.783-8.625-1.593-11.11-3.56 5.06-6.923 10.243-10.523 15.281-4.489 6.462-9.995 12.085-15.659 17.504-4.443 3.916-9.082 7.608-13.856 11.11-2.504 2.063-5.16 4.125-9.433 6.938-.259.146-.518.291-.776.44-1.2.856-2.39 1.714-3.627 2.516-.92.65-1.8 1.145-2.222 1.383-.147.086-.394.252-.776.482-.174.112-.457.276-.69.42-2.372 1.435-6.774 3.88-3.292 2.075 1.004-.58-1.168.855-2.578 1.824 2.656 17.935-14.185 37-49.744 35.7-2.584-.097-5.167-.21-7.735-.525-4.09-.567-8.149-1.366-12.096-2.599-5.593-1.676-11.041-3.718-16.434-5.953-10.22-4.745-19.392-11.077-24.61-21.424-1.427-2.83-2.523-5.297-3.312-7.463-2.48-3.57-4.823-7.208-6.771-11.11-.967-2.743-3.343-4.98-4.528-7.63-4.209-7.07-7.46-14.62-8.26-22.912-.784-7.132-.683-14.26-.46-21.424.21-10.457.479-20.91.964-31.36.425-8.309 1.094-16.621 1.006-24.945.043-5.194.12-10.383.272-15.575.28-8.896.699-17.792 1.405-26.664 1.008-11.793 2.479-23.525 3.647-35.301 1.135-10.304 2.525-20.599 3.27-30.94.582-4.58-.173-9.279.147-13.878.011-5.118 0-10.248.043-15.366.043-4.408.12-8.822.315-13.227.268-6.11.674-12.203 1.153-18.3.542-7.45.887-14.893.67-22.367v-14.674c.012-1.896.01-3.785.023-5.68.01-3.061.032-6.123.107-9.182.113-4.329.276-8.655.818-12.955.71-5.4 1.73-10.758 3.165-16.015 1.116-4.141 2.016-8.324 3.186-12.452.714-3.605 1.515-7.21 2.055-10.838.498-6.56 1.302-13.113 3.375-19.39 1.698-4.98 1.098-2.835 2.913-8.825 1.95-7.027 1.505-4.374 2.705-9.14 1.705-5.021 3.726-9.946 6.54-14.464.616-2.531 1.28-5.057 2.285-7.463.863-2.13 1.588-4.315 2.306-6.498.054-.473.107-.932.167-1.404.292-2.195.982-4.305 1.551-6.436.842-2.453 2.56-7.953 4.78-9.098 4.133-2.13 8.773-3.077 13.164-4.612h.021c1.102 1.19 2.157 2.418 3.313 3.564 1.929-4.141 3.874-8.314 4.989-12.745 6.945-27.629 22.623-40.823 36.977-41.59zm-474.695 194.553c.261.641.51 1.288.776 1.928-.064-.645-.13-1.257-.19-1.908-.195 0-.391-.021-.586-.021zm13.206 29.18c-.202.053-.393.064-.587.107 1.009 2.19 2.002 4.386 3.04 6.56.345-.02.683.012 1.005-.02-.393-3.984-2.522-3.94-3.459-6.646zm-9.307 7.525c-.245.054-.984.175-.735.167.546-.01 1.091-.11 1.636-.147-.305.007-.59-.043-.902-.021zm590.471 104.393c-2.057 2.193-4.112 4.39-6.163 6.582-7.1 7.51-14.123 15.105-21.13 22.703 5.062-2.489 10.436-8.212 15.156-8.763.406-.645.777-1.31 1.195-1.95 2.733-4.387 5.396-8.83 7.798-13.415.956-1.774 2.162-3.398 3.144-5.157zm-159.022 147.534c.01.008.022.01.022.022.011-.003.032.003.043 0-.022-.006-.043-.011-.064-.022zm127.096 3.94c-1.679 1.28-2.915 2.447-5.408 3.942-.233.14-.935.575-.713.42a291.46 291.46 0 0 0 6.121-4.36z"/>
    </clipPath>
    <clipPath clipPathUnits="userSpaceOnUse" id="d">
      <path d="M314.491 354.609v1422.787h403.947l-.021-.022c-33.314-32.873-18.486-66.294 9.58-65.403 10.982.349 23.986 5.937 36.936 18.887.333.333.562.851 1.005 1.006.403.14-1.24-1.134-.86-.944 2.326 1.163 4.029 3.32 6.5 4.34 5.543 2.965 11.426 5.184 17.23 7.567 4.66 1.9 9.484 3.389 14.423 4.36 3.345.183 7.079 1.875 10.397.902 4.313-.462 8.553-1.333 12.829-2.054 36.67-6.189 55.922 12.33 53.769 31.36h948.867V354.608ZM1753.19 1456.355c44.873 1.39 49.732 49.774-5.031 66.179-1.422.426-2.661 1.447-3.878 2.285-3.52 2.515-6.722 5.412-9.915 8.322-2.88 2.66-1.252 1.197-4.99 4.402-49.43 42.39-93.398-9.791-42.407-50.289 1.686-1.339.615-.435 3.166-2.788 5.894-5.344 11.915-10.58 18.572-14.967 7.325-4.619 15.005-8.758 23.5-10.775 5.939-1.41 11.453-2.163 16.518-2.348a69.525 69.525 0 0 1 4.465-.022z"/>
    </clipPath>
    <clipPath clipPathUnits="userSpaceOnUse" id="b">
      <path d="M144.327 16.5v749.502h705.968V16.5Zm486.906 239.788c4.706 0 9.412 4.66 9.412 13.977v8.44c.016 4.802.031 9.6-.138 14.398-.13 3.693-.621 7.352-1.163 11.002a39.53 39.53 0 0 0-.456 4.283c-.033.685-.048 1.367-.066 2.052-.082 3.024-.65 5.533-1.536 7.553 1.312 2.235 2.273 5.032 2.262 8.806-.003 1.464-.07 2.926-.354 4.367-.449 2.753-.825 5.517-1.362 8.255a105.576 105.576 0 0 1-2.436 9.166c-1.027 3.499-2.218 6.95-3.809 10.24-2.013 4.599-3.92 9.242-5.507 14.007-1.197 3.317-2.41 6.7-4.193 9.755 1.854 3.228 1.997 8.076-1.638 13.96-.14.227-.285.455-.426.683-.057.096-.109.196-.162.294.143-.01.286-.028.426-.03 2.13-.049 4.07.759 5.495 2.26.458.11.916.214 1.374.325 5.673 1.227 11.385 2.266 17.18 2.717 4.871.414 9.751.699 14.632.954.379-4.37.67-8.748 1.146-13.108.55-4.018.946-8.083 2.094-11.985.258-.606.36-1.304.773-1.818 1.622-2.018 2.732-2.53 3.936-3.203a8.727 8.727 0 0 1-.066-2.238c-5.722-3.123-1.739-5.389 3.551-7.487a23.458 23.458 0 0 1 3.293-3.101 40.307 40.307 0 0 0 1.884-1.584c.413-.367.82-.738 1.23-1.11.725-.66-.403.37 1.985-1.373-.015-.013-.044-.025-.06-.036-.267.17-.58.376-.54.342.122-.1.318-.228.499-.36-.69-.493-1.203-.98-2.676-1.518-.909-.332-1.044-.432-.864-.438.18-.006.676.08 1.038.114.946.091 1.141.099 2.118.168.836.07 1.668.025 2.501.036 1.013-.829 2.031-1.651 3.03-2.496.962-.858 2.012-1.627 2.747-2.699 1.073-2.073 2.031-4.208 3.006-6.329 1.32-2.99 2.796-5.903 4.343-8.782a197.39 197.39 0 0 1 3.683-6.503c.861-1.506 1.74-3.01 2.532-4.553.323-.645.164-.331.456-.924 3.088-6.269 7.398-9.016 11.14-9.118 6.235-.171 10.903 7.002 5.746 17.444-.38.77-.183.366-.611 1.218-.964 1.866-2.004 3.689-3.054 5.507a174.484 174.484 0 0 0-3.317 5.855 107.343 107.343 0 0 0-3.81 7.72c-1.555 3.386-3.016 6.857-5.17 9.917a34.965 34.965 0 0 1-5.55 5.633c-.881.743-1.769 1.48-2.663 2.207.267.314.398.316.672.648.232.282-.482.552-.72.828-.456.53-.43.503-.912 1.104a33.483 33.483 0 0 0-3.173 4.715c-.6 1.204-1.067 2.474-1.476 3.755a18.734 18.734 0 0 1-1.524 4.308c-1.774 3.593-3.21 4.451-4.451 3.755.217 3.117.424 6.235.684 9.346.23 2.341.44 4.684.666 7.025 10.531 1.935 12.18 11.075 5.327 15.693.074.77.126 1.565.126 2.412V453.357c.006 6.912-.517 13.807-1.014 20.696-.336 4.355-.535 8.719-.672 13.084a42.35 42.35 0 0 1 3.36-2.016c3.382-1.636 6.804-3.215 10.048-5.117a27.082 27.082 0 0 0 4.9-4.061c2.98-2.787 6.117-5.427 9.617-7.547 3.203-1.855 6.546-3.435 9.88-5.039 2.808-1.365 5.647-2.699 8.189-4.535 1.891-1.383 3.77-2.91 5.087-4.871-.049-.083-.077-.176-.126-.258-.1-.163-2.103-2.914-.738-1.572.587.578.867.61 1.344.99.034-.083.024-.08.144-.336.298-.645.097.759.173-.546.23-3.896 1.166-6.967 2.502-9.232-1.097-5.521 1.833-9.674 6.803-9.826.24-.006.484-.006.732.006 3.1.14 6.81 1.754 10.588 5.387 1.376 1.323 2.449 2.896 3.419 4.529a133.35 133.35 0 0 1 2.166 4.121c.531 1.106 1.185 2.597 1.41 3.06.463.96.805 1.966 1.127 2.98 2.56 8.069-2.333 6.329-7.792 3.66.116.313.233.625.354.936.701 1.675 1.318 3.388 2.165 4.997.622 1.162 1.305 2.288 1.95 3.438 5.552 9.89 1.578 17.084-4.397 17.6.648 2.536 1.3 5.072 1.925 7.613.176.74.297 1.49.468 2.231a7.2 7.2 0 0 1 1.68-.203c4.706 0 9.412 4.654 9.412 13.97v25.328c0 5.038-1.382 8.7-3.39 11.014.186 1.409.381 2.815.57 4.223.468 3.196.644 6.417.757 9.64.18 4.334.131 8.66-.228 12.982-.388 4.96-2.19 8.674-4.943 12.712-1.88 2.678-4.002 5.172-5.825 7.889-.85 1.265-1.688 2.544-2.454 3.863-4.752 8.18-11.284 9.681-15.345 7.12.227.374.478.74.696 1.116.299.518-1.248 3.371-2.04 4.83 4.411.147 11.202 23.756 15.555 9.382.016-.053.06-.21.048-.156a65.655 65.655 0 0 1-1.218 4.565c-.501 1.713-1.092 3.403-1.53 5.135-.557 2.086-1.186 4.148-1.937 6.173-.52 1.344-1.17 2.626-1.83 3.905a10.9 10.9 0 0 1 .648-.036c7.451-.188 11.478 8.133 3.246 17.949-.4.476-.818.937-1.242 1.392-.707 1.176-1.42 2.35-2.28 3.449-2.244 2.81-4.906 5.247-7.504 7.72a131.166 131.166 0 0 1-3.738 3.426c-8.926 7.893-17.25 4.914-18.428-1.458-3.041-.438-5.456-2.306-6.287-5.267-.83.927-1.704 1.81-2.556 2.706-3.315 3.77-6.625 7.588-10.792 10.462-5.053 3.534-10.274 6.985-16.07 9.178-.845.214-1.676.478-2.532.642-1.938.37-3.899.263-5.855.294-1.491.183-2.997.392-4.397.966-1.434.653-2.487 1.778-3.348 3.09-.382.533-.743 1.123-.942 1.757-.075.24-.118.49-.161.738-.04.227.062.51-.09.683-.106.121-.065-.316-.096-.473-3.075-14.593-12.562 7.561-16.731 7.462-2.825 2.59-5.57 5.272-8.303 7.955a191.033 191.033 0 0 1-15.279 13.545c-3.9 3.04-10.207 7.895-15.435 3.432-1.9-1.623-2.586-4.148-3.3-6.653-1.105 2.366-3.52 4.635-7.024 6.497 11.063.413 13.435 13.568-.99 19.058-.495.188-.977.385-1.428.678-1.484.708-2.91 1.55-4.54 1.908-1.356.311-2.725.509-4.116.534-1.109.072-2.215.19-3.317.33-1.824.191-3.645.223-5.477.191h-4.074c-17.287 0-18.526-16.194-3.737-18.536-.441-1.553-1.042-2.837-1.194-4.937-.113-1.566 1.233-3.244 2.58-4.637.17-1.611.383-3.203.912-4.746.656-2.196 1.32-4.399 2.37-6.448a219.967 219.967 0 0 1 5.518-10.504 264.204 264.204 0 0 1 6.221-10.51c-.258-3.831-.721-7.672-.24-11.464.133-1.047 1.664-1.299 2.526-1.908 5.135-3.634 10.652-6.757 16.017-10.03 1.386-.825 2.76-1.666 4.127-2.52-.479-.703-.92-1.427-1.278-2.201-.967-2.095 1.795-4.252 2.694-6.377 4.708-5.546 10.873-9.48 17.145-13.024 2.042-1.117 4.092-2.14 6.142-2.735-.719-.945-1.631-1.748-2.267-2.754-.46-.727 1.189-1.247 1.793-1.86.767-.776 1.544-1.544 2.322-2.309 3.911-3.843 7.867-7.638 11.818-11.44 7.91-7.719 16.032-15.216 24.17-22.694-1.115-5.666 2.447-10.589 6.646-13.971 4.342-3.356 8.828-6.523 13.288-9.718.723-.951 1.476-1.88 2.291-2.766.998-1.083 1.981-2.21 3.18-3.065 1.52-1.085 3.272-1.798 4.907-2.7.381.057.772.094 1.164.12.311-.228.624-.455.935-.684-2.36-3.179-3.366-7.046-3.623-10.977-.003-.248-.006-.496-.012-.744-1.668-1.683-2.887-3.788-3.557-6.143-.323-1.132-.356-2.328-.534-3.492.062-1.088.024-2.191.192-3.269.76-4.919 3.541-9.186 6.772-12.844.745-.727 1.447-1.5 2.232-2.183a27.347 27.347 0 0 1 4.787-3.324 22.384 22.384 0 0 1 5.639-4.175c-2.155-3.078-3.651-6.146-3.581-10.468.083-1.314.211-2.626.348-3.935-4.676 1.636-9.375 3.21-14.11 4.667-4.424 1.127-10.466 2.695-14.841.636-1.798-.846-3.616-1.916-4.835-3.486-.526-.677-.874-1.46-1.176-2.267-5.665 3.89-13.774-.271-13.497-12.616.052-2.324.018-1.124.083-3.611.147-4.679.367-9.358.726-14.026.184-2.554.367-5.11.528-7.666-.084.055-.155.126-.24.18-5.952 3.858-12.16 7.338-18.794 9.898-7.066 2.637-14.274 4.982-21.77 6.035-4.637.585-9.39 1.232-13.888-.432-.63-.313-1.275-.6-1.89-.942-2.108-1.174-3.86-2.91-5.668-4.475-3.117-3.15-5.63-6.527-6.941-10.828-1.004-3.45-1.723-6.956-2.244-10.51-.363-2.207-.962-4.363-1.475-6.539-3.373-.125-6.082-2.25-7.031-5.597-.531.559-1.07 1.11-1.596 1.674-3.234 3.617-6.252 7.412-9.298 11.188-2.84 3.318-5.74 6.6-8.956 9.562-.659.567-1.383 1.053-2.052 1.608-1.042 1.76-2.872 3.304-5.501 4.313-1.04.784-2.016 1.65-3.072 2.411-4.045 2.833-8.094 5.77-12.67 7.697-2.614.762-3.216 1.13-5.95 1.176-3.68.06-7.168-1.199-10.42-2.802-.85-.497-1.727-.954-2.55-1.493a32.357 32.357 0 0 1-11.584-13.318c-1.305-3.17-1.787-4.014-2.615-7.397-1.246-5.088-1.365-10.344-1.338-15.555.076-5.363.019-10.76.714-16.089.32-1.932.66-3.861 1.014-5.789-3.092-2.232-5.118-6.964-3.965-13.911.027-.173.06-.348.09-.522-1.269-3.002-2.24-6.124-3.12-9.262a62.568 62.568 0 0 1-1.734-8.98c-.708-6.11 1.27-9.727 3.858-12.094-.159-1.127-.31-2.255-.45-3.384-1.882-.42-3.758-.872-5.663-1.182-2.913-.52-5.843-1.15-8.812-1.17h-.013c-.049.126-.088.254-.138.379a222.151 222.151 0 0 0-2.963 7.9c-1.352 4.05-2.603 8.133-3.695 12.262-1.227 4.355-2.163 8.785-3.504 13.107-.923 2.329-2.085 4.55-2.975 6.893-1.135 3.008-1.892 6.113-2.658 9.232-1.178 4.77-2.281 9.563-3.533 14.314-1.18 4.282-2.136 8.764-4.703 12.472-1.496 1.867-3.061 3.679-4.631 5.483-2.381 2.32-4.987 4.366-7.889 6.004-3.397 1.935-6.892 3.755-10.666 4.842-3.75 1.015-7.573 1.69-11.47 1.235-.871-.165-1.75-.297-2.615-.492-1.908-.429-3.661-1.482-5.435-2.25-2.774-1.445-5.452-3.044-8.003-4.858-3.597-2.545-6.933-5.39-8.74-9.527-1.229-3.227-2.203-6.544-3.198-9.85-1.172-4.053-2.447-8.12-2.85-12.34a67.488 67.488 0 0 1-.12-4.607c-3.33-.009-6.053-.621-8.188-1.62-4.757.231-8.612-3.333-7.966-9.712-1.306-2.251-2.167-5.266-2.244-9.076-.062-3.084.587-6.099 1.446-9.04.152-.502.563-.865.75-1.35-1.996-4.174.082-10.421 8.242-14.745.901-.478 1.826-.93 2.688-1.476.11-.05.363-.234.63-.432.063-.075.137-.158.18-.216.775-1.028 1.545-1.974 2.525-2.933 1.147-1.13 2.547-1.916 3.9-2.76 3.457-2.158 6.632-3.079 9.322-3.095 1.568-.01 2.968.29 4.163.828 1.261-.302 2.651-.862 3.761-.894 10.716-.312 14.046 11.083 3.012 17.595 3.218 3.675 2.841 10.31-4.865 16.13-.988.746-1.97 1.492-2.934 2.268-1.112.838-2.138 1.783-3.221 2.658 1.362.58 2.723 1.16 3.875 2.07 2.955 2.333 3.577 7.65 3.785 11.163.1 2.627-.199 5.256.036 7.877.44 2.88 1.345 5.68 2.154 8.476.906 2.74 1.565 5.581 2.663 8.255-.339-.945-.01-.498.504-.102.334.257 1.186.832 1.47 1.026 1.882 1.355 3.868 2.524 5.921 3.593.107.145 1.057.503 1.764.756 1.35.046 2.635-.25 3.917-.66 2.285-.707 4.39-1.883 6.455-3.072 1.416-.856 2.815-1.78 3.947-2.999.747-.937 1.492-1.874 2.28-2.777.75-.862.593-.458.743-.882-.078.08-.138.18-.234.24-.021.015-.054-.036-.047-.06.054-.25.145-.486.215-.732.52-1.801 1.027-3.61 1.524-5.417 1.2-4.591 2.27-9.214 3.408-13.822.906-3.825 1.925-7.607 3.287-11.296a78.687 78.687 0 0 1 1.974-4.673c.342-.738.817-1.51 1.037-2.303.98-3.847 1.915-7.707 2.982-11.53 1.172-4.424 2.52-8.797 3.965-13.138.194-.554.401-1.104.6-1.655-2.998.683-6.033 1.168-9.1 1.385-3.172.239-6.22-.44-9.107-1.71-1.209-.605-.552-.252-1.961-1.097-1.578-.947-2.195-1.694-2.742-2.424-17.371-.824-16.964-18.782 1.242-18.782h18.387c1.689.03 3.37.177 5.05.336 2.664.25 4.895.862 6.731 1.703.914-.099 1.834-.291 2.742-.294 2.075-.006 4.124.309 6.125 1.236.137.103.27.21.414.306a24.92 24.92 0 0 1 2.591-.15c4.082-.015 8.104.748 12.106 1.458 2.185.357 4.336.882 6.497 1.362 1.258-.812 2.655-1.229 4.08-1.206.06 0 .123.009.185.012-.125-1.068-.257-2.136-.378-3.203-.252-2.366-.89-4.665-1.577-6.935-.69-1.857-1.378-3.71-2.07-5.567-.67-1.837-1.284-3.69-1.788-5.579-.14-.822-.48-1.561-.75-2.363-3.409-10.162 1.105-16.465 6.653-16.611a7.49 7.49 0 0 1 .54.006c3.961.178 8.327 3.466 10.666 10.666.376 1.158.878 2.283 1.092 3.491.341 1.31.784 2.584 1.242 3.857.823 2.235 1.691 4.455 2.453 6.713.991 3.348 1.89 6.739 2.25 10.222.238 2.121.529 4.233.72 6.359.172 1.925.16 3.692-.019 5.309 17.405 5.594 11.96 23.06-5.159 18.015v6.131c3.466 1.573 6.292 6.005 6.275 13.317-.009 3.404-.607 6.77-1.182 10.114-.832 4.515-1.861 8.988-2.831 13.474a298.029 298.029 0 0 0-1.65 9.136c-.44 4.412-.406 8.863-.468 13.294.006.53.129 1.056.132 1.59.162-.007.321-.016.486-.013 3.138.047 6.883 1.591 10.654 5.231 1.015.98 2.001 1.986 2.982 3 .382.37.6.548.912.917.05.06.11.113.137.187.013.035-.04.089-.03.114.191.156.71.268.912.323 2.375.217 4.77.047 7.156.078 1.084-.866 2.23-1.656 3.276-2.567 2.472-2.378 4.74-4.953 6.964-7.559 3.11-3.896 6.245-7.771 9.563-11.494 2.567-2.809 5.304-5.455 7.876-8.26 1.127-1.225 1.99-2.65 3.006-3.96-.594-1.957.268-2.613 1.943-2.56.91-1.271 1.963-2.432 2.832-3.732 1.672-2.53 3.155-5.174 4.72-7.769-1.163-4.088.999-8.115 5.67-9.574 1.175-2.157 2.33-4.326 3.533-6.467-1.624-3.423-1.284-8.869 2.376-15.189 1.256-2.17 2.064-4.607 2.903-6.965 1.731-5.166 3.805-10.205 5.987-15.195 1.257-2.552 2.192-5.231 2.976-7.96.817-2.604 1.539-5.227 2.111-7.895.441-2.422.786-4.858 1.182-7.289.185-.548.15-.78.114-1.235-.255-3.201.29-5.652 1.116-7.757-1.22-2.295-1.948-5.367-1.842-9.226.025-.881.053-1.76.096-2.64.119-1.99.304-3.975.624-5.945.44-2.953.87-5.914.978-8.902.162-4.577.129-9.152.12-13.732v-8.44c0-9.317 4.707-13.977 9.412-13.977zM399.682 370.59c.106-.121-.233.218-.336.342-.033.04-.06.088-.09.132.187-.21.069-.067.426-.474zm223.759 47.961c-.735.965-1.512 1.898-2.28 2.832-2.61 3.16-5.024 6.48-7.33 9.868-.649.942-1.282 1.894-1.92 2.843.36 1.124.92 2.174 1.253 3.306a120.461 120.461 0 0 1 3.054 13.467c.429 2.792.906 5.566 1.722 8.273.405 1.194 1.31 1.981 2.183 2.831.393.328.793.652 1.188.978.29-.019.58-.037.87-.06 2.003-.159 1.555-.129 3.677-.414 2.506-.372 4.97-.93 7.403-1.602-.193-3.817 2.343-8.369 8.68-11.746a49.998 49.998 0 0 0 7.799-5.14c1.75-1.481 3.106-3.341 4.649-5.028-.838-3.005-.638-6.974 1.218-11.62a32.94 32.94 0 0 0 1.53-4.817c-4.866-.26-9.728-.557-14.584-.965-6.444-.508-12.8-1.657-19.112-3.006zm-1.5 44.914.048.042c.369.282.62.39.51.312-.18-.127-.373-.236-.558-.354zm-208.732 12.172c1.026.024 2.114.127 3.264.311 4.079.654 8.097 1.636 12.111 2.598 4.672 1.155 9.329 2.35 13.984 3.57a75.431 75.431 0 0 1 10.066 3.37c1.13.45 2.21 1.012 3.293 1.56 16.625 8.419 8.107 25.219-8.512 16.791-.701-.355-1.383-.74-2.124-1.013-2.414-1.053-4.955-1.804-7.492-2.496a1036.794 1036.794 0 0 0-13.606-3.473c-3.445-.827-6.888-1.684-10.384-2.274-17.225-2.909-15.983-19.331-.6-18.944zm323.947 2.1c-1.519.801-2.925 1.798-4.47 2.549-1.453.726-2.93 1.41-4.39 2.123 2.79 1.022 4.506 2.515 6.22 5.561 1.033 1.835 1.275 3.884 1.308 5.951 2.426.483 5.105 1.81 7.822 4.211-.163-.71-.276-1.431-.444-2.141-.973-3.965-2.023-7.915-3.005-11.878-.182-.707-.357-1.754-.642-2.16a24.733 24.733 0 0 1-2.4-4.217zm-11.602 22.429c-.052.003-.271.077-.654.198.155-.015.3-.012.462-.036.154-.106.247-.166.192-.162zm-28.31 2.484c-.204.13-.413.263-.58.407-.05.043-.164.193-.103.168.224-.087.461-.317.684-.575zm47.266 28.602c-.854 1.707-2.43 3.241-4.727 4.337-1.847 3.289-4.358 6.224-6.677 9.155a89.21 89.21 0 0 1-3.677 3.845c.056.057.112.119.168.174.928.918 1.632 2.247 2.13 3.701 6.7 2.246 6.344 5.67 7.288 10.918-.131 1.142-.185 2.29-.396 3.42-.793 4.254-3.138 9.93-5.849 13.287-1.061 1.315-2.35 2.429-3.527 3.642-.286.111-.564.258-.846.39-.218.35-.445.681-.684.983-1 1.267-1.78 3.23-3.377 3.468-.985.146-1.732.237-2.562.348-.009 2.643-1.406 6.516-1.913 8.164l-.576 1.638c1.517-.906 3.054-1.777 4.65-2.55.38-.12.738-.24 1.109-.366.33-.272.66-.542.99-.816 1.518-1.152 5.22-4.247 6.832-3.167 2.358 1.579 4.395 3.623 6.185 5.879-.947-3.142-.619-7.26 2.256-12.106a91.572 91.572 0 0 1 3.09-4.865c1.886-2.77 3.98-5.38 5.956-8.086.832-1.144 1.605-2.06 1.644-3.546.31-3.577.31-7.162.168-10.75-.088-2.602-.216-5.202-.6-7.78-.54-4.029-1.047-8.06-1.626-12.082-.107-.692-.21-1.384-.318-2.076-.867-.318-1.998-1.153-3.479-2.67-.702-.718-1.064-1.673-1.632-2.489zm-27.54 65.178c-.041.001-.277.172-.81.63-.173.148-.336.304-.504.456.669-.39 1.396-1.087 1.313-1.086zm-24.686 13.18c-1.088 1.362-2.185 2.717-3.258 4.091-.043.194-.11.392-.168.588.892-.55 1.772-1.117 2.664-1.668 1.262-.739 2.515-1.506 3.767-2.267a.884.884 0 0 1 .031-.09c-.427.064-.856.117-1.278.198-.555-.322-1.166-.574-1.757-.852zm40.228 20.474c-.993.594-1.988 1.185-2.981 1.782-2.203 1.305-4.46 2.52-6.683 3.791 1.927.54 3.854 1.082 5.783 1.614l.738.21c.16-.322.337-.636.492-.96.541-1.268 1.144-2.515 1.572-3.827.36-.974.703-1.78 1.08-2.61zm-96.606 5.285c-.178.226-.142.204.036.036zm48.117 20.666c-.16.145-.25.29-.414.432-.17.17-.409.412-.551.558-4.896 4.517-9.967 8.835-15.01 13.186 1.976-.555 4.009-.924 6.053-1.2 1.625-.204 3.264-.147 4.895-.162.807-.006.596.163.702-.192 3.643-1.916 7.114-4.123 10.474-6.497.395-.28.642-.715 1.014-1.02-.128-.095-.255-.176-.384-.275-.787-.609-1.577-1.208-2.435-1.716-1.466-1.013-2.926-2.037-4.344-3.113zm-30.522 21.986c-.459.738-1.014 1.412-1.494 2.136.198-.01.402-.025.594-.025.45.003.681.33 1.098.39a31.384 31.384 0 0 1 1.848-2.351c-.694.027-1.398.127-2.046-.15zm-37.08 7.619c-.524.247-1.047.5-1.57.75-.423 1.575-1.102 3.245-2.077 4.979.031-.022.057-.046.084-.066 1.003-.65 2.07-1.335 3.18-1.956-.146-1.002-.05-2.23.384-3.707z"/>
    </clipPath>
  </defs>
  <g transform="translate(-46.99 -5.372) scale(.32558)" clip-path="url(#b)" id="group-axl">
    <path d="M818.5 306.3c-4.3-37.1-21.2-73.7-50.2-108.8-13.9-16.8-30.1-31.3-48.3-43.2 3.1-3 5.3-6.8 6.1-11 1.7-8.1-1.6-16.8-8.2-21.7-6-4.5-12.9-5.1-18.9-5.1-1.7 0-3.4.1-5.1.1-1.6.1-3.2.1-4.7.1-3.8 0-7.8-.3-10.9-2.2-1.6-.9-3-2.4-4.7-4.1l-.1-.1c-1.2-1.2-2.6-2.6-4.3-4-3.8-3-8.2-4.8-12.3-4.8-2.4 0-4.6.6-6.7 1.7-2.5 1.4-4.3 3.4-5.7 5-.6.7-1.5 1.7-1.9 2-.5-.1-1.7-.9-2.7-2.4-.5-.8-1.1-1.7-1.6-2.6-1.5-2.6-3.4-5.7-6.5-8.1-3.2-2.4-7-3.7-11.4-3.7-4.8 0-9.3 1.5-12.3 2.7-1.3.6-2.6 1.1-3.8 1.7l-.4.2c-4 1.8-7.4 3.4-10.7 3.5h-.1c-1.7 0-3.8-.9-4.8-2.2-.3-.3-.6-.8-.5-1.2.1-.6.2-1.3.1-1.9 7.7-2.2 15.4-9.6 14.6-19-.1-1.1-.3-2-.5-2.9 0-.2-.1-.5-.1-.8 1.1-.2 2.8-.3 3.5-.4 4.1-.3 9.3-.7 13.2-4.4 3-2.9 3.9-6.7 4.5-9.5.2-1 .4-2 .7-2.7.7-2 2.8-4 5-6.1 3.7-3.6 7.9-7.7 8.6-14.1.5-4.3-.8-8.5-3.8-12.1-3.5-4.3-9.1-7.2-14.7-7.6-.7-.1-1.3-.1-2-.1-7.5 0-14.5 3.3-20.1 5.8l-.2.1C591.7 25 587 27 582.7 27c-.7 0-1.3-.1-1.9-.1-2.2-.3-4.6-1.3-7.2-2.4-3.8-1.6-8.1-3.4-13-3.4-1.2 0-2.3.1-3.4.3-7.9 1.5-12.6 7.4-16.7 12.7-2.8 3.6-5.5 7.1-8.6 8.1-.8.3-1.8.4-2.8.4-3.3 0-7.3-1.5-11.4-3.1-5-1.9-10.1-3.9-15.6-3.9-3 0-5.9.6-8.5 1.9-4.1 1.9-6.9 5-9.3 7.7-1.9 2.1-3.5 3.9-5.3 4.7-1.4.7-3.5 1-5.7 1.3-2.5.4-5.3.8-8 1.9-13.4-1.8-28.4-3.8-43.4-3.8-1.4 0-2.9 0-4.3.1-37.2 1-72.2 14.9-107.8 30.3-32.6 14.1-65.9 30.3-84.8 59.7-11.6 3.5-22.1 9.8-30.5 18.1l-1.7 1.7c-2.5 2.6-4.7 4.8-7 5.6-1.6.6-3.8.7-5.9.9-4.6.4-10.9.9-15.3 6-4.1 4.8-3.9 10.8-3.7 15.5.1 2.9.2 5.9-.8 6.7-.4.4-1.6.8-2.5 1.2-1.5.6-3.3 1.3-5 2.6-3.4 2.4-5.5 6.3-5.9 10.7-.4 4.4 1 8.6 3.9 11.6 3.1 3.2 7.3 4.9 12.3 4.9 3.9 0 7.4-1 9.7-1.8l3.9-1.5-1.5-3.6 1.6 3.5c3.2-1.3 6-2.4 8.6-2.4h.6c1 .1 2.2.3 3.4.6.2 0 .4.1.6.1-3.4 3.7-5.3 8.3-6.8 12.6-1.3 3.7-2.8 7.9-5.4 9.7-.9.6-2.1 1.2-3.5 1.8-2.9 1.3-6.6 3-9.1 6.6-2.5 3.6-2.8 7.6-3 10.9-.1 1.2-.2 2.4-.4 3.4-.7 3.5-3.6 6.7-7 10.3l-.3.3c-1.2 1.3-2.5 2.7-3.6 4.1-6.7 8.2-9.4 20.3-1.7 27.8 4.3 4.2 9.6 4.7 13.1 4.7 1.9 0 3.7-.1 5.6-.3h.1c1.5-.1 3.1-.3 4.6-.3 1.4 0 2.5.1 3.4.4 1.5.4 3.2 1.4 5.1 2.4 3.2 1.7 7.2 3.9 11.8 3.9 1.6 0 3.1-.3 4.6-.8 4.2-1.5 6.9-4.7 8.8-7 1-1.2 2-2.4 2.8-3 1.7-1.2 4.6-1.4 7.7-1.7h.4c-.9 1.8-1.8 3.8-2.4 5.9-.6 1.9-1.1 3.7-1.6 5.6-1.1 4.3-2.1 8-4.1 10.9-.5.7-1.1 1.5-1.8 2.3-2 2.5-4.3 5.4-5.1 9.4-1.1 5.1.8 9.6 2.3 13.3.9 2.1 1.7 4.1 1.7 5.6 0 1.6-.9 3.8-1.8 6.1v.1c-1.8 4.4-4.3 10.3-1.3 16.5 2.4 5 7.6 8 13.8 8 2.5 0 5-.5 7.2-1.4 5.4-2.3 9.2-6.5 12.5-10.2l.8-.9c2.7-2.9 5.5-5.7 8.5-6.3.7-.1 1.6-.2 2.9-.2h3.7c4.2 0 9-.5 12.7-4.5 2.1-2.3 3-4.9 3.8-7.1.3-.8.7-2.2 1-2.5.4-.4 2-.8 3-1.1l.2-.1c.9-.2 1.8-.5 2.8-.9 4-1.5 7.4-4.3 9.9-7.9 22.2 6.9 45.7 10.4 70 10.4 13.5 0 27-1.1 40.2-3.3 2.2 27 7.5 60.7 25.8 90.6 6.9 11.3 14.8 17 23.6 17 .5 0 .9 0 1.4-.1 6.7-.5 13.1-4.7 17.3-11.2 3.3-5.2 4.9-11.1 6.3-16.3l18.1-68.4c10.5 1.3 20.9 3.5 31 6.5 1.3 19.4.5 38.9-2.3 58l-.1.5c-1 6.9-2.3 15.4 1.5 23.1 4.1 8.1 13.4 13.3 23.7 13.3 1.2 0 2.3-.1 3.3-.2 10.2-1.1 18.6-6.7 24.9-11.4 10.8-8.1 20.5-18.1 29-29.7 2.1 8.5 4.1 17.7 5.1 26.7l.1.9c.7 7.4 1.7 16.6 8.8 22.5 3.5 2.8 7.6 4.3 12.2 4.3 10.4 0 19.8-7.1 23.3-10.2 9.6-8.3 18-18.2 24.7-29.3.3 8.4.2 16.4-.8 22.8-3.8 22.8-3.2 33.5 18.9 39.5 1.3.4 2.7.5 4.2.5 4.9 0 10.8-2 17.9-6.2 2.2 4.1 5.2 7.7 8.9 10.3 1.7 1.2 3.6 2.3 5.2 3.3 3.9 2.3 7.9 4.7 7.9 7 0 1.9-3.3 4.3-8 5.9l-.8.3c-6.4 2.2-14.3 4.9-17.7 12.7-4.7 11 4.3 21.7 8.1 26.2 4.6 5.5 6.5 10.2 5.1 12.6-1.4 2.3-5.9 3-10.6 3.7-6.7 1-15.8 2.4-19.6 10.8-2.8 6.2-.7 12.2 1 17 .9 2.7 1.8 5.3 1.7 7.3-.3 4.1-5.5 7.3-10.3 8.3-3.3.6-6.8.7-10.5.8-3.5.1-7.4.2-11.4.8-8.7 1.5-19.5 7.1-21.4 18.1-.6 3.3-.2 6.5.2 9.2.3 2.7.6 5.1-.1 6.3-.7 1.2-3.3 2.1-5.6 3l-.6.2c-27.6 10.4-48.7 35.8-53.7 64.8-1.3 7.5-2.9 26.1 10.5 36 4.3 3.2 9.7 4.9 15.6 4.9 7.2 0 15.1-2.5 21.7-6.9 5.7-3.8 10.4-8.4 15-12.9 3.1-3 6.2-6.1 9.5-8.7 6.1-4.9 12.6-7.6 18.3-7.6 1.9 0 3.7.3 5.3.9 2.2.9 4.3 2.3 6.8 4 2.2 1.5 4.5 3.1 7.1 4.4 4 1.9 8.5 3 13.2 3 3.8 0 7.5-.7 11.2-1.9 8.2-2.9 14.9-8.8 18.3-16.1 1.3-2.8 2.1-5.7 2.9-8.3 1.2-4.2 2.3-7.8 4.6-9.9 2-1.8 4.9-2.6 9.7-2.6 2 0 4 .1 6.3.3h.1c2.2.1 4.6.3 6.9.3.8 0 1.6 0 2.3-.1 10.2-.5 20.3-5.5 27.7-13.7 7.4-8.2 11.3-18.8 10.7-29.1-.3-4.6-1.3-8.9-2.3-13.2l-.2-.6c-.2-.8-.4-1.6-.5-2.3 37.4-23.9 41.5-60.9 45.6-96.6l.2-1.4c.5-4.6 1.1-9.3 1.7-13.9 4.5-34.2-22.8-182-31.3-226.8zm-21.4 331.9c-.3-3.1 0-5.8.7-8.2 2.5-8.4 10.9-13.7 18.9-18.8 1.2-.7 2.3-1.5 3.4-2.2 2.6-1.7 4.9-3.5 6.9-5.3-5.9 13.1-15 25-29.9 34.5zm20.4-33.3c-1.1.7-2.2 1.4-3.4 2.2-8.4 5.3-17.8 11.4-20.9 21.5-1.6 5.3-1 10.5-.4 14 .4 2.5 1 5.1 1.6 7.6.9 3.9 1.8 7.9 2.1 11.7.5 7.9-2.6 16.2-8.5 22.7s-13.8 10.5-21.7 10.8c-2.7.1-5.6-.1-8.4-.2-8-.5-16.2-1-22.3 4.6-4.1 3.7-5.6 8.9-7.1 13.9-.7 2.5-1.5 4.9-2.5 7.1-2.4 5.2-7.3 9.5-13.3 11.6-6 2.1-12.4 1.9-17.6-.6-2.1-1-4-2.3-6-3.7-2.7-1.8-5.4-3.7-8.6-4.9-13.5-5.2-27 3.8-32.1 7.9-3.6 2.9-7 6.2-10.2 9.3-4.5 4.4-8.7 8.5-13.7 11.8-8 5.3-19.5 8-27.4 2.3-9.8-7.2-7.9-22.9-7.1-27.5 4.6-26 23.5-48.9 48.2-58.2l.6-.2c3.5-1.3 7.5-2.8 9.9-6.4 2.4-3.8 1.9-8.1 1.4-12-.3-2.4-.6-4.7-.2-6.7 1.1-6.2 7.9-10 14.3-11.1 3.3-.5 6.6-.6 10.2-.7 3.9-.1 8-.2 12.1-1 7.9-1.6 16.6-7.3 17.3-16.1.3-3.8-1-7.3-2.2-10.8-1.4-4-2.6-7.5-1.2-10.6 1.9-4.1 7-4.9 13-5.8 6.2-.9 13.1-2 16.7-7.7 3.7-6 1.6-13.8-5.8-22.7-4.7-5.5-9.1-11.9-6.8-17.2 1.8-4.3 7.3-6.2 12.5-7.9l.8-.3c8.8-3 13.7-8 13.9-14 .1-7.3-6.4-11.2-12.1-14.6-1.7-1-3.3-1.9-4.7-2.9-3.8-2.7-6.6-6.8-8-11.7 8.6-6.2 18.6-15 29-25.5 4.8 15.7 9.2 35 13.1 57.4 12 69.2-56.8 114.4-98 141.4-12.2 8-21.9 14.3-26.6 19.5-9.9 10.6-12.5 21.3-11 28.2-3.4.1-7.1-.8-9.4-3.8-.8-1.1-2.3-1.3-3.4-.4-1.1.8-1.3 2.3-.4 3.4 2.8 3.7 7.3 5.7 12.6 5.7 1.4 0 2.9-.1 4.4-.4h.2c2.3-.5 4.5-1.3 6.5-2.4 5.8-3.3 10.1-8.5 14.1-13.6.7-.9 1.5-1.8 2.2-2.8 4-4.9 9.6-10.6 16.5-11.8 2.5-.4 5.1-.3 7.9-.1 4.2.3 8.6.5 12.8-1.3 5.2-2.3 8.2-6.9 11.1-11.5 2.8-4.3 5.4-8.3 9.4-9.8 3.2-1.2 7-.6 11 0 5.3.8 10.7 1.6 15.5-1.6 4.7-3.1 6.1-8.4 7.4-13.5.8-3.1 1.6-6.1 3.1-8.5 3.2-5 9.2-7 15.6-9.2 6.5-2.2 13.1-4.4 17.5-9.9 5.2-6.5 5-14.8 4.8-22.8-.1-3.7-.2-7.5.3-11 1.2-8.6 5.8-16.1 10.7-24 1.5-2.4 3-4.9 4.4-7.4 4.6-8.2 11.3-24 3.4-36.6-1.9-3.1-4.6-5.7-7.1-8.2-3.8-3.7-7.3-7.2-7.9-11.7-.5-3.7 1-7.5 2.6-11.5 2.1-5.2 4.2-10.6 2.2-16.2-2.2-6-7.8-8.6-13.1-11.2-2.7-1.3-5.6-2.6-7.7-4.4-3.1-2.4-5-6.3-5.5-10.8 5.8-6.7 11.1-13.3 15.7-19.6 4.5-6.1 11-16 17-28.9 1.4.5 2.6 1.2 3.8 2.1 5.7 4.2 8.8 11.6 7.6 18.6-.4 2.4-1.3 4.9-2.2 7.5-2.1 6-4.2 12.2-1 18.1 2.3 4.2 6.6 6.3 10.6 8.3 3.7 1.8 7.2 3.6 8.6 6.7 2.2 4.7-1.1 9.5-4.9 15.1-3.8 5.5-7.7 11.2-6.8 17.9.9 7.1 6.6 11.2 12.1 15.2 4.6 3.4 9 6.5 10.3 11.1 2 7.1-4.3 14.4-9.2 19.2-5.3 5.3-13.3 13.3-12.1 23.1.8 5.7 4.4 10 8 14.1 2.9 3.4 5.7 6.6 6.7 10.5 2.8 11.2-10.6 21.1-14.8 23.8zm-102-119.7c-10.5 7.4-16.5 9-19.7 9-.8 0-1.4-.1-1.8-.2-14.7-4-16.3-7.6-12.6-29.7 2-12 .9-27.2-.2-43.4-.1-1.7-.2-3.5-.3-5.2l-.1-1.9c-.9-13.7-1.2-24.7-.1-34 2.9-23.8 24.1-48.2 24.3-48.5.9-1 .8-2.5-.2-3.4-1-.9-2.5-.8-3.4.2-.9 1-22.4 25.7-25.5 51.1-1.1 9.2-.9 19.7-.1 32.4-22.1.4-44.1-4.6-64-14.5 3.9-8 7.3-16.6 10.2-25.4 11.2-34.8 12.9-71.6 13.1-96.2 0-1.3-1-2.4-2.4-2.4-1.3 0-2.4 1.1-2.4 2.4-.3 24.3-1.9 60.7-12.9 94.8-3 9.4-6.7 18.5-11 26.9-2.1 4.1-4.3 8.1-6.6 11.9-9.6 15.8-21.3 28.9-34.7 39.1-5.4 4-12.5 8.8-20.6 9.7-6.4.7-14.9-1.6-18.3-8.4-2.6-5.2-1.6-11.7-.7-17.9l.1-.5c3.1-21.1 3.8-42.7 2-64.2-1.4-17.4-4.5-34.6-9.1-51.2-.4-1.3-1.7-2-3-1.7-1.3.4-2 1.7-1.7 3 4.2 15.2 7.1 30.9 8.6 46.8-12.6-3.8-25.5-6.4-38.6-7.7h-.1c-8.3-.8-16.7-1.1-25-.9-1.3 0-2.4 1.2-2.3 2.5 0 1.3 1.2 2.4 2.5 2.3 7.2-.2 14.5 0 21.7.6-3.4 12.8-6.8 25.6-10.2 38.5l-8.6 32.4c-1.3 4.8-2.6 9.7-5.2 13.8-2.7 4.3-6.7 7-10.6 7.3-7.2.5-13.2-6.7-17-12.8-14.2-23.2-21.9-51.5-24.9-91.5 10.3-2.1 20.6-5 30.5-8.5 1.3-.4 1.9-1.8 1.5-3.1-.4-1.3-1.8-1.9-3.1-1.5-10.3 3.7-21.1 6.6-31.9 8.8-39.3 7.8-81.2 5.2-117.9-7.2-8.1-2.7-15.8-5.9-22.9-9.4-8.6-4.3-16.3-9.1-22.9-14.3-4-3.1-7.5-6.4-10.6-9.7-.8-.9-1.6-1.7-2.2-2.5-.9-1-1.7-2-2.4-3-5.2-6.8-9.1-14.2-11.7-22.1-2.2-6.5-3.4-13.5-3.6-20.6-.5-12.6 2-23.2 4.3-30 1.2-3.7 2.2-5.8 2.2-5.9.1-.3.2-.5.2-.8.4-4.1.7-7.9 1-11.4.4-4.5.9-8.6 1.4-12.5 1.3-9.3 2.8-17.2 4.9-24.3 2.4-8.6 5.5-15.9 9.4-22.6l.9-1.5c17.3-28.5 50-44.5 82.1-58.3 34.8-15 69-28.6 104.6-29.5 16.2-.4 32.4 1.8 48.2 3.9 12.9 1.8 26.3 3.6 39.6 4 24.7.8 49.9-3.3 73.1-11.8 1.9-.7 3.4.2 4.2 1.2.4.5 1.5 2.2.2 4.1-.1.1-.1.2-.1.2s0-.1.1-.1c-2.1 2.9-5.8 4.7-9.4 6.2-16.6 7.1-34 12.2-51.7 15.4-3.1-2.7-6.2-5.6-9.2-8.6-.9-.9-2.5-.9-3.4 0-.9.9-.9 2.5 0 3.4 3.3 3.3 6.8 6.5 10.2 9.5 17.8 15.6 36.9 27.9 56.9 36.5 1.4.6 2.8 1.2 4.1 1.7 0 0 .1 0 .1.1 24.8 9.9 51.1 14.1 75.8 12 1.5-.1 2.7-.2 3.8-.1 3.9.1 6.6.9 7.8 2.4.3.4.6.8.7 1.4.7 2.3-1 4.9-2.9 6.2-2.4 1.6-5.5 2.1-8.9 2.6-26.7 3.6-53.8 3.6-80.6.1-.1-2.8-.4-5.5-.7-8.2-.2-1.3-1.4-2.3-2.7-2.1-1.3.2-2.3 1.4-2.1 2.7.4 3.2.7 6.5.8 9.8.4 16.3-3.1 32.5-10.4 47-.8 1.6-1.7 3.3-2.6 4.8-.7 1.2-.3 2.6.9 3.3.4.2.8.3 1.2.3.8 0 1.6-.4 2.1-1.2.6-1 1.2-2.1 1.7-3.1 24.2 9.1 50.5 13.4 76.3 12.5h.2c2.6-.1 5.1-.2 7.2.7 1.6.7 3.1 2.4 2.8 3.9-.5 2.2-4.1 3-7.1 3.4-30 3.2-60.6 4-90.8 2.3h-.5c-.1 0-.2 0-.3.1-.1 0-.1 0-.2.1-.1 0-.2.1-.3.1 0 0-.1 0-.1.1-.1.1-.2.1-.3.2 0 0-.1 0-.1.1-.1.1-.2.2-.3.2l-.1.1c-.1.1-.1.2-.2.3l-.1.1c-.1.1-.1.2-.1.3 0 0 0 .1-.1.1-3.4 10.1-7.9 19.9-13.3 29.3-11.2 19.2-25.7 35.4-43.3 48.1-1.1.8-1.3 2.3-.5 3.4.5.6 1.2 1 2 1 .5 0 1-.1 1.4-.5 17.5-12.7 32.2-28.7 43.5-47.7 6.4 2.6 13.8 1.8 19-2 1-.8 1.9-1.6 2.8-2.4 1.6-1.5 3.2-2.9 4.9-3.5 3.9-1.2 7.7 1.6 12 4.9 4 3 8.4 6.4 13.6 6.4.6 0 1.3-.1 2-.2 4.9-.8 8.2-4.6 11.1-7.9 2.6-2.9 5-5.7 8.2-6.3 3.7-.8 7.5 1.7 11.4 4.3 4.2 2.8 9.1 5.9 14.6 5.1 6-.9 9.4-5.6 12.6-10.2 2-2.8 3.9-5.5 6.3-7.2 3.5-2.5 8-3 12.7-3.6 1.2-.1 2.4-.3 3.5-.5 5-.7 13.9-3.2 16.5-10.8 3-8.7-4.6-17.2-13.1-20.8-2.3-1-4.7-1.7-7.1-2.5-5.1-1.6-9.9-3.2-13.5-6.5-1.1-1-2-2.2-3.1-3.4-1.4-1.8-2.9-3.6-4.9-5.1-4.8-3.6-11.6-4.6-19.7-2.9-1.8.4-3.5.8-5.2 1.3-.2.1-.4.1-.6.2-.3.1-.6.2-.9.2-3.8 1-7.3 2-11 2.3-4.7.3-11.1-1-13.8-5.8-1.2-2.1-1-5.2.5-7.5.6-1 2-2.6 4.1-2.5 2.7.1 5 2.6 7.5 5.1 2.8 3 6.1 6.4 10.7 6.7.8.1 1.6 0 2.4-.2.2 0 .4-.1.6-.1 4.1-1 7-4.7 9.6-7.9 2.4-3.1 4.8-6 7.8-6.8 4.4-1.2 8.6 2.6 13 6.5 5 4.4 10.6 9.4 17.5 7.4 6.5-1.8 8.7-8.3 10.7-14.1 1.6-4.6 3.1-9 6.4-11.2 2.8-1.8 6.4-1.7 10.3-1.6 2.3.1 4.6.1 6.9-.2 20.8 12.2 39.1 27.9 54.6 46.5 24.8 30.1 40.4 61.1 46.4 92.5-.2.4-.3 1-.2 1.5 0 0 .8 3.9 2 10.7 3.2 28-1.2 55.5-12.9 81.9-6 13.5-12.8 23.8-17.4 30-4.8 6.5-10.2 13.2-16.2 20.1-5 5.7-10.1 11.4-15.4 16.8-11.3 11.7-22.6 21.7-32.1 28.3zm-102.4-33.3-.1-.9c-1.4-13.8-5.1-27.3-8.6-40.4 1.8-3 3.5-6.1 5.2-9.2 19.8 9.9 41.7 15.1 63.8 15.1h2.3c-6.8 18-18 34-32.4 46.4-7.1 6.1-17.7 11.3-24.4 5.8-4.4-3.8-5.1-10.4-5.8-16.8zm-354.6-92c-1.7 1.9-4.7 1.8-8.2 1.7-2.1 0-4.3-.1-6.4.3-5.5 1-9.6 4.9-13.3 9l-.8.9c-2.8 3.2-5.8 6.4-9.4 8-3.4 1.4-8.3.8-9.8-2.4-1.3-2.7 0-5.8 1.5-9.4 1.3-3 2.6-6.1 2.6-9.5 0-3.3-1.2-6.1-2.3-9-1.2-2.9-2.3-5.6-1.8-8.2.4-2 1.9-3.9 3.4-5.8.7-.9 1.4-1.8 2.1-2.8 2.8-4.2 4.1-8.9 5.3-13.5.5-1.7.9-3.5 1.5-5.2.7-2.1 1.5-4 2.5-5.6 2.3 2.3 4.9 4.6 7.6 6.9l-11.5 27.4c-.6 1.4-1.4 3.3-1.1 5.5.6 3.6 4 5.7 7 6h.9c2.5 0 4.9-.9 6.8-1.9 10.5-5 18.6-13.2 24.7-20.2 6.1 2.9 12.6 5.6 19.3 8-1.5 2.8-3.8 4.9-6.5 5.9-.7.3-1.5.5-2.4.7-2.3.6-4.9 1.3-6.8 3.3-1.7 1.7-2.4 3.9-3.1 5.9-.4 1.6-.9 3.1-1.8 4zm-21.6-41.5c5.5 4.1 11.8 8 18.5 11.5-5.6 6.4-13 13.7-22.3 18.1-1.6.8-3.5 1.5-5.2 1.4-1.3-.1-2.6-1-2.7-2-.1-.8.3-1.9.8-2.9zm-51.8-11.9c-2.2-1.2-4.5-2.5-7-3.1-3.6-1-7.4-.7-11.1-.4-4.9.4-9.2.7-11.9-1.9-3.9-3.8-1.7-11.1 2.4-16.1 1.1-1.3 2.3-2.6 3.6-4 3.9-4.2 7.9-8.5 9.1-14.4.3-1.5.4-3.1.5-4.6.2-2.5.3-4.8 1.5-6.5 1.2-1.7 3.3-2.6 5.6-3.7 1.7-.7 3.4-1.5 4.9-2.6 4.8-3.4 6.8-9.2 8.5-13.8 1.7-4.6 3.5-9 6.9-11.3 1.6-1 3.8-1.4 5.7-.9.6.2 1.6.5 2.3 1.3-2.2 6.9-4.5 17.3-4.1 29.5-5.6 6-11.8 11.3-18.6 15.7l-.7.5c-2.7 1.8-5.5 3.6-7.5 6.5-2.4 3.4-3.1 8.7 0 12.2 1.7 1.8 4.2 2.9 7 2.9.5 0 1.1 0 1.6-.1 2.6-.4 5-1.5 7.4-2.7 5.3-2.8 10.5-5.8 15.7-9.1 2.2 6 5.2 11.8 9 17.2-4.1.3-8.3.7-11.9 3.2-1.8 1.3-3.2 2.9-4.5 4.5-1.6 1.9-3 3.7-4.9 4.3-3 1-6-.7-9.5-2.6zM156.9 214c-1.1-1.2-1.7-2.9-1.5-4.8.2-1.9 1-3.5 2.3-4.4.9-.6 2-1.1 3.2-1.6 1.6-.7 3.5-1.4 5.1-2.8 3.9-3.5 3.8-8.8 3.6-13.5-.1-3.8-.2-7.4 1.7-9.7 2-2.3 5.4-2.6 9.3-2.9 2.7-.2 5.5-.5 8.1-1.4 4.3-1.5 7.4-4.7 10.3-7.7.5-.5 1-1.1 1.6-1.6 6.5-6.5 14.5-11.6 23.3-14.8-3 5.8-5.5 12.1-7.5 19.1-8.3 6.6-17.4 11.8-27.2 15.4l-.5.2c-2.4.9-5.1 1.9-7.3 4-2.5 2.5-3.9 6.9-1.6 10.3 2.1 3 5.8 3.4 8.6 3.4h.4c7.4-.1 14.7-1.3 21.8-3.6-.3 2.4-.6 4.8-.8 7.4-.6.3-1.2.7-1.8 1-.8.5-1.5 1-2.3 1.5-3.3 2.2-6.4 4.3-9.9 4.4-1.5.1-3.2-.3-4.9-.7-1.5-.3-3.1-.7-4.7-.8-4.7-.3-8.9 1.4-13 3.1-1.2.5-2.4 1-3.6 1.4-2 .7-9.1 2.9-12.7-.9zm54.5-21.8c-7.3 2.6-14.9 4-22.6 4.1-2.7 0-4.3-.4-5-1.3-.8-1.1-.1-3 1-4.1 1.4-1.4 3.4-2.1 5.6-2.9l.5-.2c8.3-3.1 16.2-7.3 23.5-12.5-1.1 5.2-2.1 10.8-3 16.9zm-6.1 82.9c-5.4 3.4-10.9 6.6-16.4 9.5-2 1.1-3.9 2-5.8 2.2-1.4.2-3.3 0-4.4-1.2-1.4-1.6-.9-4.4.4-6.2 1.4-2.1 3.7-3.6 6.1-5.2l.8-.5c5.8-3.9 11.3-8.3 16.3-13.3.6 5.1 1.6 10 3 14.7zM514.5 47.6c6.6 2.5 13.3 5.2 20.1 2.8 5.6-1.9 9.2-6.6 12.7-11s6.7-8.6 11.4-9.5c3.7-.7 7.5.9 11.5 2.6 2.9 1.2 5.9 2.5 9.2 3 7.2 1.1 14.2-1.8 20.7-4.8l.2-.1c5.8-2.7 11.8-5.5 17.8-5 3.3.3 6.6 2 8.7 4.5 1 1.2 2.1 3.2 1.8 5.6-.4 3.4-3.2 6.1-6.1 8.9-2.8 2.7-5.6 5.5-7 9.2-.5 1.3-.8 2.7-1.1 3.9-.5 2.1-.9 4-2 5.1-1.6 1.6-4.8 1.8-7.8 2-4.3.3-9.8.7-11.3 5.9-.6 2-.2 3.9.1 5.6.1.7.3 1.3.3 1.9.4 4.6-3.9 8.7-8.3 9.9-4.9 1.4-10.2.6-16-.6-3.5-.7-8.7-.6-11.7 1.8-1.5 1.2-2.3 2.9-2.4 4.9 0 2.2 1 4 2.8 5.3 3.2 2.2 8.2 2 11.5.7l.6-.3c3.8-1.5 6.9-2.6 8.8-1.7-.1 2.4.8 4.8 2.5 6.9 2.8 3.3 7.4 5.4 11.8 5.3 5.2-.1 9.7-2.3 14.2-4.3l3.9-1.8c3.7-1.6 10.6-3.7 15.1-.2 1.8 1.3 3 3.4 4.3 5.6.6 1 1.2 2.1 1.9 3.1 2.5 3.6 7.2 7.4 12.2 5.9 2.8-.8 4.6-2.9 6.1-4.7 1.1-1.2 2.1-2.4 3.2-3 2.9-1.6 6.9.2 9.4 2.2 1.2 1 2.4 2.2 3.6 3.4 1.9 1.9 3.9 3.9 6.4 5.4 6.2 3.7 13.4 3.5 20.5 3.3 7-.2 13.6-.4 18.5 3.2 3.9 2.9 5.9 8.2 4.9 13-1 4.7-5 8.8-9.7 9.9-.3.1-.5.1-.8.2-2.1.4-4.4.3-6.9.3-4.4-.1-9-.3-13 2.4-4.7 3.1-6.7 8.7-8.3 13.7-1.8 5.3-3.4 9.8-7.4 11-4.4 1.2-8.6-2.5-13-6.4-4.9-4.4-10.5-9.3-17.4-7.5-4.6 1.2-7.6 5.1-10.3 8.5-3.2 4.1-5.4 6.6-8.5 6.4-2.7-.1-5-2.6-7.5-5.2-2.9-3-6.1-6.5-10.8-6.7-3.4-.2-6.5 1.6-8.4 4.8-2.3 3.8-2.6 8.7-.5 12.3 3.8 6.7 12.2 8.7 18.3 8.2 4.1-.3 8.1-1.4 12-2.4 2.1-.6 4.2-1.2 6.3-1.6 4.7-1 11.2-1.4 15.8 2 1.5 1.1 2.7 2.7 4.1 4.3 1.1 1.3 2.2 2.7 3.5 3.9 4.3 4.1 9.9 5.9 15.3 7.6 2.2.7 4.6 1.5 6.7 2.4 5.6 2.3 12.5 8.5 10.4 14.7-1.8 5.2-8.7 7-12.6 7.6-1.1.2-2.3.3-3.4.4-5.2.6-10.5 1.3-15 4.5-3.1 2.2-5.3 5.3-7.4 8.3-2.9 4.1-5.5 7.6-9.4 8.2-3.7.6-7.4-1.8-11.3-4.4-4.4-2.9-9.3-6.1-15-5-4.7 1-7.8 4.5-10.8 7.9-2.6 3-5.1 5.8-8.3 6.3-4 .7-7.8-2.2-11.9-5.3-4.8-3.6-10.1-7.7-16.4-5.6-2.8.9-4.8 2.7-6.7 4.5-.8.8-1.6 1.5-2.5 2.1-3.7 2.7-8.9 3.3-13.6 1.6 4.7-8.4 8.7-17.2 11.8-26.1 9.9.5 19.7.8 29.6.8 20.1 0 40.2-1.1 60.1-3.2 6.6-.7 10.4-3.1 11.2-7.1.9-4.2-2.2-8-5.6-9.4-3-1.3-6.3-1.2-9.2-1h-.2c-25 .9-50.5-3.2-74-12 6.4-13.7 9.8-28.9 9.8-44.1 13.2 1.7 26.4 2.6 39.7 2.6 13.8 0 27.7-.9 41.4-2.8 3.9-.5 7.7-1.2 11-3.4 3.5-2.3 6.3-7.1 4.9-11.7-.4-1.1-.9-2.2-1.7-3-2.2-2.6-6.1-4-11.4-4h-.6c-1.1 0-2.3.1-3.7.2-24.1 2-49.5-2.1-73.7-11.8h-.1c-1.3-.5-2.7-1.1-4-1.7-18.1-7.8-35.5-18.7-51.8-32.4 16.8-3.3 33.2-8.3 48.9-15 4.3-1.8 8.7-3.9 11.4-7.8.1-.1.1-.2.2-.3 2-3 1.9-6.8-.4-9.7-2.3-3-6.2-4.1-9.7-2.8-22.6 8.3-47.3 12.3-71.3 11.5-8.8-.3-17.6-1.2-26.4-2.3 1.2-.3 2.4-.7 3.5-1.3 3.2-1.6 5.6-4.2 7.8-6.7 2.1-2.3 4.1-4.5 6.6-5.7 5.2-2.3 11.1 0 17.3 2.4zM833.3 456c-.2-1.1-.5-2.2-1-3.3-2.2-4.6-6.6-6.8-10.9-8.9-3.6-1.8-6.9-3.4-8.6-6.3-2.2-4-.5-8.9 1.3-14.1.9-2.7 1.9-5.5 2.4-8.3 1.5-8.8-2.3-18.1-9.5-23.3-1.4-1-3-1.9-4.7-2.6 7.3-17.1 11.6-34.6 12.9-52.5 6 32.6 14.1 79.1 19.7 119.2 2.7 19.6 4.9 37.7 5.9 52-2.5-3.5-6.1-6.2-9.7-8.8-4.9-3.6-9.5-6.9-10.1-11.9-.6-4.8 2.6-9.5 6-14.5 3.6-5.4 7.3-10.8 6.3-16.7zm-48.7 40.7c.8 6.2 5.2 10.4 9.4 14.5 2.5 2.4 4.8 4.7 6.4 7.3 6.5 10.5.6 24.3-3.5 31.7-1.4 2.4-2.9 4.9-4.3 7.3-4.9 8-10 16.3-11.3 25.9-.5 3.9-.4 7.9-.3 11.8.2 7.4.3 14.5-3.7 19.7-3.5 4.4-9.2 6.3-15.2 8.4-6.9 2.3-14.1 4.8-18.2 11.2-1.9 3-2.8 6.5-3.7 9.9-1.2 4.4-2.2 8.5-5.4 10.7-3.2 2.2-7.6 1.5-12.1.8-4.4-.6-9-1.3-13.4.3-5.6 2-8.8 6.9-11.8 11.7-2.7 4.1-5.2 8-9 9.7-3.1 1.4-6.7 1.2-10.5.9-2.9-.2-5.9-.4-9 .1-8.5 1.4-14.8 7.9-19.4 13.4-.8.9-1.5 1.9-2.3 2.8-3.9 4.9-7.7 9.5-12.7 12.4-1 .6-2.1 1-3.2 1.4-1.4-5.6 1.3-15 9.8-24.1 4.4-4.7 13.8-10.9 25.7-18.7C709 638.2 779.5 591.9 767 519.6c-4.1-23.8-8.9-44.2-14.1-60.5 3.8-4 7.6-8 11.2-12.2 1.2 4 3.4 7.5 6.5 9.9 2.6 2.1 5.7 3.5 8.7 5 4.7 2.2 9.2 4.4 10.7 8.5 1.4 3.9-.3 8.2-2.1 12.7-2.2 4.1-4 8.7-3.3 13.7zm44.5 70.7c-3.2-3.8-6.3-7.3-6.8-11.6-.9-6.9 4.5-12.9 10.7-19.1 3-3 6.4-6.7 8.6-11-.1 2.5-.2 4.7-.5 6.5-.7 5.1-1.3 10.3-1.8 15.4-1.1 9.5-2.2 19-3.9 28.3-1.8-3.1-4.1-5.8-6.3-8.5zM461.9 114.7c-.5.7-1.4 1.1-2.2 1-11.8-1.5-24.1.7-34.9 5.8-10.8 5.1-20.3 13.2-26.5 23.4-.7 1.1-2.1 1.4-3.2.8-.9-.6-1.3-1.6-1-2.6l.2-.7c.4-1.6.9-3.3 1.5-4.9.7-1.6 1.4-3.1 2.2-4.6l1.3-2.2 1.4-2.2c1-1.4 2.1-2.7 3.2-4.1 4.5-5.2 10.1-9.5 16.3-12.7 6.2-3.2 13-5.5 20-5.8h2.6l2.6.1 2.6.4 2.6.5c1.7.5 3.4 1 5 1.6 1.6.8 3.2 1.6 4.7 2.6l1 .7c1.1.5 1.3 1.9.6 2.9zm-25.7 45c1.9 8.4-3.9 17.2-16 24-4.1 2.3-8.3 4.4-12.5 6.3.2 13.7-5.2 28.2-14.9 40.1-9.1 11.2-21.8 20.5-38.8 28.4-17.6 8.2-34.4 12.4-50 12.4-1.4 0-2.8 0-4.2-.1-15.6-.8-30.2-6.1-41.3-14.9-3.6 1.4-7.3 2.1-10.9 2.1-4 0-7.8-.9-11.1-2.7-1.2-.6-1.6-2.1-1-3.3.6-1.2 2.1-1.6 3.3-1 5.3 2.9 12.2 2.8 19.1-.2 1.7-.7 3.4-1.7 5-2.7 7.3-4.9 12.7-12.5 17.9-19.8l.3-.4c5-6.9 11.2-15.6 19.9-20.9 12-7.4 26.3-7.7 40.2-8 3-.1 6.2-.1 9.2-.3 18.6-.9 36.7-5.1 53.9-12.6 4.6-2 9.2-4.3 13.6-6.7 4.8-2.7 15.6-9.9 13.6-18.7-.3-1.3.5-2.6 1.8-2.9 1.3-.2 2.6.6 2.9 1.9zm-214.1 57.6c-1.1.4-2.3-.1-2.7-1.2-.2-.6-.2-1.2.1-1.7l.8-1.6c.4-.7.8-1.3 1.2-1.9l1.5-1.5c.5-.4 1.1-.8 1.6-1.2.6-.3 1.1-.7 1.7-.9 2.4-1.1 4.9-1.5 7.5-1.6 2.6-.1 5.2.3 7.6 1 .6.2 1.2.4 1.8.7.6.3 1.2.5 1.8.9 1.2.6 2.3 1.4 3.3 2.3l1 .9c.9.8.9 2.3.1 3.1-.6.6-1.4.8-2.1.6-8.3-1.6-17.2-.9-25.2 2.1z" clip-path="url(#c)" class="fill-axlotl" />
  </g>
  <g id="group-world">
     <path clip-path="url(#g)" d="M924.29 306.186c-359.142 64.363-632.082 376.86-632.082 754.523 0 424.394 344.091 768.401 768.485 768.401s768.401-344.007 768.401-768.4c.071-388.958-184.65-584.746-471.768-707.783a765.125 765.125 0 0 0-29.864-11.755c-222.34 10.367-230.628-2.472-403.172-34.986z" transform="translate(34.727 68.28) scale(.09317)" id="outline-world"  class="stroke-world"/>
    <g clip-path="url(#d)" transform="translate(34.727 68.28) scale(.09317)">
      <path d="m842.1 469 1.2.5c5.2-3.9-1.2-.5-1.2-.5z" class="fill-countries" />
      <path  d="M739.066 380.313c-2.863.638-6.268 2.334-8.368 6.184-4.3 7.6-10.2 10.202-17 17.902-6.8 7.6-5.095 10.203-19.595 10.203-8.7 0-29.1-1.899-44-3.399-165.2 104.7-287.606 270.394-335.606 465.594 3 5.1 5.703 9.402 7.003 11.602 2.6 4.2 29 37.401 29 37.401s-14.5 19.598-1.7 25.498c12.7 6 10.103 1.703 28.003 14.503s30.596 17.902 30.596 17.902-25.497-5.102 14.503 6.798 44.198 14.396 45.898 11.896c1.8-2.6 2.6-15.299 6.9-3.399 4.2 11.9-2.6 10.2 13.5 20.4 16.2 10.2 35.802 26.405 40.902 29.805 5.1 3.4 12.695 9.295 12.695 9.295s25.605 19.102 28.105 20.202c2.6 1.1 33.995 10.401 33.995 10.401s17.002-7.599 20.502.901c3.3 8.5 5.104 12.8 3.304 18.7-1.6 6-17.8 35.798-17.8 35.798L598 1167.398l-15.301 18.7v22.1s-.001 1.805 3.399 6.005c3.4 4.3-3.4 29.798-3.4 29.798l13.603 17.8s4.196 15.4 7.596 21.3c3.4 6 10.204 20.4 12.804 24.7 2.5 4.2 7.698 9.296 7.698 9.296s10.103 10.2 13.603 18.7c3.4 8.6 11 12.802 14.4 17.902 3.4 5.1-2.5.898 3.4 5.098 6 4.3 3.396 1.705 12.796 6.805 9.3 5.1-7.698-12.702 9.302 5.098l17.097 17.902s4.202-.9 11.002 21.3c6.9 22.1 10.203 27.997 10.203 27.997v48.498s3.4 14.501 0 21.301c-3.3 6.8-4.203 34.9-3.303 42.5.8 7.7 2.998 8.5 4.798 21.3 1.9 12.7 3.704 23.802 4.504 35.702.8 11.9 0 13.6 0 23s-6.004 31.5.396 45.1c6.4 13.6-4.695 0 15.704 21.197 20.5 21.3 25.601 17.906 25.601 28.106 0 10.2-1.702 14.496 6.798 32.296 3.5 7.4 1.201 12.199-.499 15.199 4.4 1.8 8.902 3.5 13.302 5.2.6 0 .997.103 1.597.103 31.5 0 33.197-6 33.197-6s1.7-8.502 4.3-11.902c2.5-3.4 8.504-19.599 8.504-23.799 0-4.3-6-25.498-6-25.498l-8.503-17s-6-9.404 0-18.804c6-9.3 14.503-28.098 14.503-28.098s-6-8.402 0-11.002c5.9-2.6 11.002-5.099 13.602-7.699 2.5-2.5 8.497-11.002 8.497-13.602 0-2.5 5.1-15.3 0-22.1-5.1-6.8-9.4-8.495-4.3-11.895 5.1-3.4 20.503-14.503 20.503-14.503s5.095 2.6 9.295.9c4.3-1.7 14.5-17.9 18.7-23 4.3-5.1 9.405-14.4 11.105-17 1.7-2.6 7.698-18.698 9.398-29.798 1.7-11 2.496-13.602 7.596-15.302 5.1-1.7 6.804-4.198 11.104-6.798 4.2-2.5 5.096-1.703 13.596-10.203s-.897-9.401 14.503-12.701c15.2-3.5 18.698-5.2 21.198-6 2.6-.9 9.402-5.097 13.602-9.397 4.3-4.2 6.797-11.001 12.797-17.001 5.9-5.9 9.303-15.3 9.303-17.8 0-2.6-5.9-7.697 0-17.097 6-9.3-.803-4.204 11.097-24.604s16.2-40.9 20.4-44.3c4.3-3.4 11.104-39.9 11.104-39.9s-.9-12.795 0-16.195c.8-3.4-28.098-36.602-28.098-36.602l-22.905-5.904-49.4-15.397-19.6-9.303-22.1 8.504s-11.9 5.898-20.4 5.098c-8.5-.8-22.099-10.196-22.099-12.796 0-2.5-.9-6.803 1.7-9.303 2.5-2.6 10.202-15.302 11.902-17.902 1.7-2.5 2.498-4.195 2.498-10.995 0-6.8 5.101-19.6-3.399-25.6-8.5-5.9-58.701-21.206-58.701-21.206s-10.196-16.196-13.596-18.796c-3.4-2.5-34.903-13.602-34.903-13.602s-7.603-6.797-10.203-8.497c-2.5-1.7-27.198-12.701-27.198-12.701l-40.8-3.399s4.203-8.7-6.797-9.5c-11.1-.7-20.4 10.298-20.4 10.298s0 9.403-4.3 13.603c-4.2 4.3-18.7-10.204-18.7-10.204s.8-5.898-4.3-.798-14.4 3.402-17 9.302c-2.5 6-8.505 7.699-8.505 7.699s-16.194-13.604-19.594-12.804c-3.4.9-20.4 5.105-20.4 5.105s.896 2.6-4.204 1.7c-5.1-.8-29-23.901-29-23.901s-.8-6.7 0-9.2c.9-2.6-.3-26.4-.3-26.4l-7.296-11.902s-11.903-2.6-14.503 0c-2.5 2.5-28.903-7.703-26.303-11.903 2.5-4.3 7.6-4.297 10.1-12.797 2.6-8.5 2.6-30.603 2.6-30.603l6.805-8.497s-16.503-7.7-19.703 0c-3.2 7.6-15.999 16.099-16.899 19.499-.7 2.9-31 7.003-40.5 8.203.5-1.1.102-3.602-2.798-9.002-6.9-12.8-15.301-39.999-15.301-42.499 0-2.6-12-11.1 0-24.7 11.9-13.6 11.001-17.9 12.701-20.4 1.7-2.6 18.699-11.902 23.799-13.602 5.1-1.7 8.602-8.599 17.902-8.599 9.4 0 16.2.9 18.7 0 2.6-.8 5.097 2.6 10.197 0 5.1-2.5 1.703-3.403 12.803-7.603 11-4.3 16.098-4.3 22.898 0 6.9 4.2 29 1.706 29 1.706s2.497-11.102 6.797 4.198c4.2 15.4 5.103 12.8 7.603 21.3 2.6 8.5 17.001 17.902 17.001 17.902s1.698 15.294 5.098-6.006c3.5-21.2 3.502-21.199 3.502-26.399 0-5.1-.002-24.597 2.498-27.197 2.6-2.5 30.603-36.603 30.603-36.603s17.899-16.098 23.799-23.798c6-7.6 12.796-18.7 12.796-18.7s10.204-18.7 12.804-21.2c2.5-2.6 11-5.099 21.3-8.599 10.1-3.4 20.397-5.103 26.297-11.903 5.9-6.8 6.803-13.6 13.603-17 6.8-3.4 5.1-7.595 17-15.295 12-7.6 16.198-6.004 28.898-10.204l12.803-4.197s3.4 5.895 4.3 15.295c.8 9.3-6.901 10.202.799 9.302 7.7-.8 12.8-1.696 20.4-7.596 7.7-6 3.398-2.606 7.698-6.006 4.2-3.4 5.098-21.895 5.098-21.895s6.8-7.9-1.7-13.8c-8.5-6-7.695-7.699-14.495-5.999-6.8 1.7-22.1 4.7-22.1-.6s25.498-19.8 25.498-19.8 12.801.9 25.601 0c12.7-.8 35.7-2.502 40.8-9.302 5.1-6.9 37.4-16.203 37.4-16.203s5.995-16.2-.805-21.3c-6.8-5.1-16.194-1.695-21.294-15.295-5.1-13.6-18.706-41.706-20.406-44.206-1.7-2.6-19.6-8.497-22.1-8.497H873.6l-30.303-13.998c-1.6 1.3-4.297 3.3-8.797 6.3-18.7 12.8-20.401 10.201-23.901 15.301-3.4 5.1-11.8 11.9-17.8 20.4-6 8.5-4.297 9.395-10.197 17.895-6 8.5-6.001 12.802-15.301 19.602-9.4 6.8-38.302 33.1-38.302 33.1s-13.596 1.8-14.496-12.7c-.8-14.5-5.105-25.497-5.105-28.897 0-3.5-14.401-11.903-14.401-11.903s-27.3.8-29-5.2c-1.7-5.9-5.098-10.201-5.098-16.101 0-6-2.5-17 1.7-23 4.3-5.9 4.303-16.4 11.903-16.7 7.7-.3 9.401-3.7 22.201-5.4 12.7-1.7 24.695-2.597 31.395-6.797 6.8-4.3 10.201-11.104 19.601-12.804 9.4-1.7 12.7-.797 23-4.197 10.2-3.4 19.6-7.699 23.8-7.699 4.3 0 12.7-4.104 17-4.204 4.3 0 8.504-8.497 8.504-8.497l8.497-25.6s-5.897 1.697-24.597 8.497c-18.8 6.8-16.205 25.604-30.705 11.104-14.4-14.5-29.1-30.604-29-31.504.05-.4-2.27-.822-5.132-.185z" class="fill-countries"/>
      <path d="M952.134 430.8c.94-2.2.94-2.2 1.223-4.3.282-2.1 1.787-3.3-1.505-5.3-3.292-1.9-3.856-2.2-6.866-5-3.01-2.9-7.242-9-7.242-9s-.564-1.3-.564-4.8v-6.7c0-1.6 1.787-3.8-2.446-5.1-4.232-1.3-11.945-4.1-11.945-4.1l-7.242-8.3s-1.222-1.3-2.727-3.2c-1.505-1.9 0-4.2-3.856-4.2-3.95 0-2.07-1.5-7.243 0-5.079 1.6-10.157 1.9-10.157 1.9l-5.08-2.2s-3.385-1.9-5.925-4.7c-2.54-2.9-4.326-6.8-7.336-6.1-3.01.6-6.302 2.5-7.524 1.9-1.129-.6-2.916 1.5-6.678 2s-9.782 0-9.782 0l-3.856-2-3.386-4.5-5.737-2.5H833.062s-3.386 0-4.797 2.2c-1.505 2.2-4.514 4.8-4.514 4.8s-1.505.9-3.01 2c-1.505 1.2-3.01 1.5-4.232 3.1-1.223 1.6-2.728-.3-3.292 1.9-.565 2.2-2.352 4.2-3.292 5.4-.94 1.3-2.163 1-2.446 2.3-.282 1.3-.564 2.3 0 3.7.659 1.4 1.223 1.4 2.728 3 1.505 1.6 3.292 2.5 3.292 2.5h6.584c1.222 0 4.796.4 5.737 0 .94-.3 4.514.2 4.514.2h2.728s-4.232-2.4 2.634 0c6.96 2.4 8.464 2.4 8.464 2.4s-1.787.9 2.07 0c3.856-1 5.737-2.2 5.737-2.2s3.292-2 4.138-2c.94 0 3.668-.6 5.455-.6s2.634-.3 4.139 0c1.505.3 4.232.6 5.455 1.6 1.223 1 3.856 2.1 5.36 3.6 1.506 1.5 2.728 1.5 3.951 2.8 1.129 1.2-.376-1 1.129 1.2 1.505 2.3 2.163 2.9 4.232 5.8 2.164 2.8 1.223 1.9 3.574 5.1 2.446 3.2 4.703 3.5 6.584 5.4 1.881 1.9 3.386 2.6 3.386 2.6s3.574.3 5.643 2.5c2.163 2.3 1.223-1.9 2.163 2.3.847 4.1 1.788.3.847 4.1-.847 3.8 2.728 2.5-2.634 4.8-5.455 2.2-3.385.7-9.405 1.4-5.925.8-17.306-2-19.47 0-2.068 2.1-4.514 1.8-6.019 5.6-1.504 3.8-3.574 1.9-1.504 6.7 2.163 4.8.376 1.6 2.163 4.8 1.787 3.2 2.351 1.3 4.514 6.7 2.07 5.4-1.222 2.9 3.574 8.3 4.797 5.4 10.158 8 13.544 9.9 3.198 1.9 12.603 2.5 12.603 2.5l3.01-1.9s3.95.3 0-3.2-7.524-8-7.524-8l.846-2.8s.94-2.3 2.446-2.3c1.505 0 8.37 3.2 8.37 3.2s.941.3 1.788.7c.94.3-.283.6 3.01.3 3.291-.3 4.796-.7 5.454-1.6.565-1 2.352-2.6 2.07-5.1-.283-2.6-1.505-5.8-1.787-6.7-.283-1-.94-3.8-.94-4.8s-.283-5.4-.283-6.4c0-.9-.564-1.9 3.01-3.2 3.574-1.3 5.643-1.3 5.643-1.3s2.445 1 4.232 2.3c1.787 1.3 5.738 3.2 5.738 3.2s.564.6 3.01.3c2.35-.3 2.35-.3 4.514-1 2.069-.6 3.292.4 4.138-1.9z" class="fill-countries" />
      <path d="M640.1 927.5c-3.2-3.8-3.2-1.9-7.7-5.7-4.5-3.9-6.4-2.6-8.9-5.8-2.6-3.2-11.5 0-11.5 0s-6.4-3.2-8.3-3.2c-1.9 0-17.9-3.1-19.8-3.1-1.9 0-12.7 6.3-12.7 6.3l-4.5 1.9v3.2l7 2h8.3l4.5-1.3 7-.7s52.9 25.6 54.9 23.7c1.9-2 7 0 7 0v-5.2l-1.9-.6c-1.9-.6-5.8-1.9-10.3-7.6-4.4-5.8 0 0-3.1-3.9zM675.8 961.3l-5.1.7-10.9 3.2 4.5-.4c4.5-.3 7.7.4 11.5 0 3.8-.3 3.8-2.8 5.7-1 1.9 1.9 7.1.7 12.2 0 2.8-.4 3.6-.5 3.8-.5.3 0 7.7 1.2 10.8-.1 3.2-1.2 0 0 4.5-2.5 4.5-2.6 4.5-.6 12.8-3.8 8.3-3.2 0 0-.7-4.5-.6-4.5 0 0-3.8-1.3-3.8-1.2-6.4-1.9-9.6-3.2-3.2-1.2-5.1 0-10.8-2.5-5.8-2.6-3.2-.6-3.2-.6s-5.1 1.2-7.7 0c-2.5-1.1-8.3 0-8.3 0v4.4l1.9 5.4-3.1 4.2zM1382.5 546.4c4.3-5.1 0 0 0-5.4h-4.2s-3.4-.5-6 0-5.1.3-7.7 0c-2.5-.3-5-.5-8.5-4-3.3-3.4-6.8 0-6.8 0l-13.6 9.4H1323l-4.3 8.5h4.3l6.8.9 6.8 3.4H1362.9l3.4-6h4.3s7.7-1.7 11.9-6.8zM1419.9 588.1c0 2.6-11.9 8.5-11.9 8.5h11.9l7.7-3.4c5.1 0 17.9-2.5 17.9-2.5h11.9l5.1-2.6V578.7l5.9-4.2-5.1-4.3-11.9-11-1.7-5.7-4.2-9.6-3.5-8.4h-6.8s-1.7-2.7-1.7-5.3v-12.7l-5.1-3.4s-3.4-8.5-5 0c-1.8 8.5-.9 3.4-1.8 8.5-.8 5.1 0 1.7-.8 5.1l-.9 3.4v4.4l8.5 4.1 3.5 4.3V559.2h-6v3.4h-6V577h6l6 3.4-6 7.7s-6-2.6-6 0z" class="fill-countries" />
      <path d="M1789.1 815.9c-3.4 1.8-5.1 1.9-5.1 1.9h-7.6c-2.6 0-16.2 3.4-18.7 0-112.58-27.6-203.241-65.1-297.8-65.1-8.9 8.9-28 21.7-28 21.7s-23.4-1.3-23.9-2.6c-.4-1.2-16.7-3.8-16.7-3.8s-2 7.7-6.9 11.5l-4.9 3.8-15.3 14.1-12.7 8.9c0 7.7 4 16.1 0 19.5-3.9 3.5-12.8 12.4-12.8 12.4h-6.4s-5.1 6.4-7.6 10.2c-2.6 3.8-6 7.7-6 7.7s-4.3 2.5-6.8 7.6-8.9 10.2-8.9 10.2l-12.8 20.4s6.4-2.5 0 6.4c-6.4 9-11.5 11.5-14 19.2-2.6 7.6-1.3-5.1-2.6 7.6-1.3 12.8-5.1 14.1 0 19.2s5.1 3.8 5.1 11.4c0 7.7 1.3 7.7-1.3 15.4-2.5 7.6-2.6 2.5-6.4 15.3-3.8 12.7-1.3 22.9 0 26.8 1.3 3.8-8.9-9 1.3 3.8 10.3 12.8 14.1 15.9 19.2 22s-2.6-15.6 5.1 6.1c7.7 21.7 5.1 17.7 11.5 31.2 6.3 13.4 3.4 13.4 10.6 22.4 7.2 8.9 4.7 7.6 13.6 14 9 6.4-14 1.3 9 6.4 22.9 5.1 17.8 7.6 33.1 0 15.3-7.7 3.8-6.4 15.3-7.7 11.5-1.2 24.3-1.2 24.3-1.2s3.8 2.5 7.6 2.5c3.9 0 24.3-6.4 24.3-6.4s-3.9-3.8 6.4-7.6c10.2-3.9 2.5-2.6 10.2-3.9l7.6-1.2s5.1-2.6 12.8 1.2c7.6 3.9 14 7.7 19.2 12.8 5 5.1-3.9-5.1 5 5.1 9 10.2 21.7 11.2 21.7 11.2s2.6-5.4 6.4 0c3.8 5.4 5.1 4.1 7.7 11.8 2.5 7.6 1.2-3.9 2.5 7.6s-6.4 3.9-3.8 19.2c2.5 15.3-1.3 2.5 2.5 15.3 3.9 12.7-2.5 2.5 6.4 19.1s-5.4 8.9 9.4 24.3c0 0 14 14.4 14 18.7 0 4.2-.8-.9.9 8.5 1.6 9.3 3.4 11 5.9 16.1 2.6 5.2 3.4 12.8 5.1 17.1 1.7 4.2.9 8.5 2.6 16.1 1.7 7.7.8 12.8-.9 17-1.7 4.3-3.4 5.1-5.9 12.8-2.6 7.7-6.8 3.4-9.4 17-2.5 13.6-5.1 13.6-2.5 23.8 2.5 10.2 1.7 15.3 4.2 23 2.5 7.7 4.3 9.4 10.2 18.7 6 9.4 9.7 19.6 12.5 26.4 2.8 6.8 1.1 2.5 4.5 15.3s2.6 5.9 6 22.1c3.4 16.2 2.5 20.4 8.5 34 5.9 13.6 11.1 19.6 13.6 21.3 2.6 1.7 2.6-4.2 7.7 9.4 5 13.4-3.1 7.9 4.8 22.4 116.7-134.8 187.4-310.4 187.4-502.6 0-85.7-14.2-167.9-40-244.8z"  clip-path="url(#e)" class="fill-countries"/>
      <path d="M1637.3 553c-.6.2-1.2.5-1.9.5-5.1-.5-9 .4-10.9 0-1.9-.5-13.4 1-15.3 0-1.9-1.1-11.8 1.4-12.6 3.3-.8 1.9-8.5 3.4-10.4 2.4-1.9-1.1-12.1-5.7-12.1-5.7H1562s-7 1.7-8.9 0c-1.9-1.8-4.5 1-6.4 0-1.9-1.1-8.3 4.2-9 5.7-.6 1.5-.6-1.5-5 0-4.5 1.5-3.9-2.8-8.3 0-4.5 2.7-8.3 1.5-9.6 4-1.3 2.6-5.8 3.8-6.4 5.8-.6 1.9 1.3 0-3.8 5.1s-10.2 7-12.2 8.3c-1.9 1.2-1.2 1.2-5.1 3.1-3.8 2-7 3.9-10.8 6.4-3.8 2.6-8.9 4.5-13.4 7.7s-6.4 5.7-10.8 8.3c-4.5 2.5-8.3 3.8-14.1 4.4-5.7.7-10.2 1.3-12.1 2-1.9.6-10.2.6-10.2 3.2 0 2.5 2.6 6.3 5.7 7.6 3.2 1.3 10.3 3.2 12.2 4.5 1.9 1.2-1.9-3.2 1.9 1.2 3.8 4.5 1.2 7.1 2.5 10.3 1.3 3.1-1.9-.7 0 6.3s0 9.6 0 14.1v4.4c0 6.4 4.5 3.2 0 6.4-4.4 3.2-4.4 3.2-7.6 3.2-3.2 0-10.7-3.2-10.7-3.2s-5.9-2.5-11.9 0c-5.9 2.6-11.2-1.4-16.7-1.1-5.4.3.6.3-5.4.3-5.9 0-7.6 0-10.2 1.7-2.5 1.7-5.9 5.1-5.9 5.1v7.6s.8-4.3 5.9 0c5.1 4.3 15.6 4.3 15.6 4.3l3.5 4.2s.5 2.6 0 5.1c-.4 2.6-3.5 7.7-3.5 7.7s3 2.6 0 6.8c-2.8 4.3 0 11.1 0 11.1s-3.3 4.2-6.9 5.9c-3.6 1.7-5.3 4.3-5.3 6.8 0 2.6 5.3 11.9 5.3 11.9h23.6s7.7 2.6 11.9 0c4.3-2.5 18.3-10.2 18.3-10.2s3.8-5.9 4.7-8.5c.9-2.5 5.1-11.1 5.1-11.1l3.4-8.9 11.1-9.8 5.9-5.9 5.1-9.4v-3.4l14.5-11.3h6s2.5-4.6 6.7 0l4.3 4.5 17-.8 7.7-5.8 9.3-5.3 6 5.1 7.6 7.7s1.7.8 5.2 3.4c3.3 2.5 6.8 3.3 11 5.9 4.3 2.6 8.5 6 8.5 6l13.6 9.3s2.9 0 5.7 1.7c2.8 1.7 6.2 4.4 6.2 4.4v5.8s2.6 1.8 4.3 4.3c1.7 2.5-1.7 2.5 0 6l1.7 3.4s-4.3 9.3 0 9.3h4.2V707.3s4.3-3.2 7.7 0l3.4 3.3 6.8.9s1.7-4.2-4.2-4.2c-6 0-21.3-8.6-21.3-8.6l-12.8-8.5-5.1-4.3-7.6-11.9-6-10.2h-5.9l3.4-11.1s6.8.9 9.3 0c2.6-.8 6 7.7 6 7.7s11.9 6 17 8.5c5.1 2.6 15.3 6 15.3 6l12.1 5.1s-7.4-1.7 0 2.5l7.5 4.3s3.4-.9 6.8 7.6-3.4 11.9 0 14.5l3.4 2.6s0 8.4 4.2 8.4h11.1s5.1 8.6 6 11.1c.8 2.6 7.6 1.7.8 2.6-6.8.8-5.1-6.8-6.8.8-1.7 7.7.9 16.5.9 16.5h4.2s6 2.8 9.3 0c3.5-2.9 6-8.8 6-8.8s1.7-6 0-8.5c-1.7-2.6-6.8-9.4-6.8-9.4s-3.4-3.4-1.7-7.6c1.7-4.3 7.7-17.3 13.6-14.2 5.9 3.1 14.4-3.1 17.9 0 3.4 3.1 7.6 3.1 10.2 3.9 2.5.9 11.9-3.9 11.9-3.9s3.4-4.6 0-7.1c-3.4-2.6-6-6.9-6-9.4 0-2.1 1.2-8.6 1.6-11-25.4-43.5-54.8-84.3-87.9-121.9z"  clip-path="url(#f)" class="fill-countries"/>
      <path d="M939.9 607.9c-2.2-5.1-1.7-11.6-1.9-17.2-1.3-.3-1.5.4-2.5 1.2v.7c-7.5 7.2-10.4 15.3-19.8 20.2-5.1 2.7-20.3 10.3-8.4 12.9 6.1 1.4 12.1-2.2 18-1.9 4.6.2 6.9 3.3 10.9 4.5 9.4 2.8 19-3.8 17.7-13.3-6.1-.4-11.9-2.4-14-7.1z" class="fill-countries" />
    </g>
   
  </g>
  <path d="M-284.871 407.153c-1.3 0-2.4 1.1-2.4 2.4-.3 24.3-1.902 60.702-12.901 94.8-3 9.399-6.7 18.5-11 26.9-2.1 4.1-4.3 8.1-6.6 11.9-9.6 15.8-21.3 28.9-34.699 39.1-5.4 4-12.5 8.8-20.6 9.7-6.399.7-14.9-1.6-18.3-8.4-2.6-5.199-1.6-11.7-.7-17.9l.1-.5c3.1-21.098 3.8-42.702 2-64.2-1.4-17.4-4.5-34.601-9.1-51.2-.38-1.234-1.573-1.896-2.804-1.707-.567.443-1.13.922-1.7 1.33a2.555 2.555 0 0 0-.197 1.678c3.776 13.666 6.438 27.748 8.04 42.004.106.41.177.83.241 1.248.048.361.144.714.207 1.074.072.413.104.83.127 1.248.023.33.024.662.024.992v5.387a64.555 64.555 0 0 1-.188 3.605 35.514 35.514 0 0 1-.193 1.98c-.11.898-.341 1.641-.648 2.243l-.567 2.45c-.161.85-.405 1.681-.601 2.523a9.921 9.921 0 0 0-.305 1.5 7.975 7.975 0 0 1-.139.795c.326 15.2-.505 30.398-2.697 45.35l-.1.5c-1 6.899-2.3 15.401 1.5 23.1 4.1 8.1 13.4 13.3 23.7 13.3 1.2 0 2.3-.1 3.3-.2 10.2-1.1 18.599-6.7 24.899-11.4 10.8-8.1 20.5-18.1 29-29.7.026.106.05.219.076.325l.115-.203c.144-.386.528-.718.658-1.1.193-.387.449-.743.622-1.14.284-.54.532-1.095.802-1.64.352-.676.684-1.359.98-2.06.47-1.165 1.051-2.28 1.608-3.406.314-.663.647-1.317.973-1.974-.278-1.067-.552-2.145-.834-3.202 1.452-2.42 2.822-4.926 4.197-7.425.038-.122.061-.196.094-.295.2-.586.364-1.186.623-1.75.269-.568.565-1.126.951-1.625.364-.454.748-.89 1.092-1.36.236-.306.46-.618.678-.937-.08-.035-.158-.07-.235-.108 1.394-2.86 2.702-5.817 3.969-8.812.186-.83.487-1.51.855-2.04a220.244 220.244 0 0 0 5.377-14.548c11.2-34.798 12.9-71.6 13.1-96.2 0-1.3-1-2.4-2.4-2.4zm181.53 19.125-.66.149c.268.308.478.204.66-.149zm-.913.206c-2.014.434-4.054.83-6.153 1.138.16.778.387 1.552.536 2.33-.2.4-.3 1-.2 1.5 0 0 .8 3.902 2 10.701 3.2 27.999-1.2 55.503-12.9 81.9-6 13.5-12.801 23.801-17.4 30-4.8 6.5-10.2 13.201-16.2 20.1-4.999 5.7-10.1 11.4-15.4 16.8-11.3 11.699-22.6 21.7-32.1 28.3-10.499 7.4-16.5 9-19.7 9-.8 0-1.4-.1-1.8-.2-14.698-3.999-16.301-7.602-12.601-29.7 2-12 .9-27.202-.2-43.4-.1-1.7-.2-3.5-.3-5.2l-.1-1.9c-.9-13.7-1.2-24.701-.1-34 2.9-23.8 24.101-48.2 24.301-48.5.9-1 .8-2.5-.2-3.4-1-.9-2.501-.8-3.401.2-.9 1-22.4 25.702-25.5 51.1-1.058 8.85-.897 18.955-.172 31.012.247.707.36 1.582.273 2.625-.058.703-.147 1.41-.445 2.058-.03.066-.075.138-.105.207v1.399h.25c-.078.205-.171.403-.25.607v.686c.007.47 0 .939-.028 1.408-.064.519-.103 1.04-.164 1.559a24.67 24.67 0 0 1-.398 2.416c-.162.786-.341 1.568-.46 2.363-.074.638-.195 1.27-.276 1.908a10.5 10.5 0 0 0-.08 1.149c-.007.83.056 1.66.093 2.49.036.83.056 1.662.069 2.494.015.7.015 1.403.015 2.103a21.385 21.385 0 0 1-.152 3.252 20.626 20.626 0 0 1-.444 2.092c.251 7.98.129 15.564-.826 21.672-3.8 22.799-3.198 33.5 18.9 39.5 1.3.4 2.7.5 4.2.5 4.9 0 10.8-2 17.9-6.2.271-.34.555-.671.836-1.003.225-.295.254-.337.395-.53-.016-.062.065-.117.091-.179.134-.277.273-.552.4-.832.27-.497.262-.465.509-.912.136-.239.28-.473.425-.707.056-.143.07-.18.221-.473-.152.253.245-.495.297-.58-.03.052-.115.215-.092.158.085-.214.226-.407.38-.676.234-.376.293-.479.583-.876a.633.633 0 0 0-.056.068c.205-.35.522-.718.81-1.043.39-.43.796-.842 1.203-1.256.58-.625 1.284-1.102 1.998-1.555a35.822 35.822 0 0 0 1.807-1.123c.856-.55 1.752-1.03 2.639-1.529.124-.068.25-.132.377-.197 6.921-5.58 14.487-12.49 22.277-20.356.04.13.076.279.115.412.224-.259.447-.518.676-.773.445-.49.878-.988 1.334-1.469.482-.465.951-.944 1.404-1.437.16-.165.322-.329.483-.492l-.012-.04c3.8-4 7.601-8.001 11.201-12.2.03.097.079.182.11.279.058-.067.113-.131.156-.192.066-.09.116-.14.054-.08.31-.424.655-.821.99-1.225.469-.535.988-1.02 1.475-1.537.477-.449.894-.955 1.32-1.45-.028-.202-.082-.39-.105-.595 5.8-6.699 11.1-13.3 15.7-19.6 3.92-5.314 9.351-13.66 14.656-24.216.003-.087.003-.174.008-.262.03-.57.174-1.12.312-1.672.128-.532.384-1.014.62-1.503.164-.434.4-.844.632-1.245.184-.313.386-.615.578-.923.16-.217.161-.298.264-.584.217-.553.38-1.123.584-1.68.323-.88.75-1.72 1.164-2.559.232-.465.497-.913.771-1.355 6.024-14.783 9.82-29.865 11.387-45.242v-4.631c-.02-.585.07-1.163.176-1.737.138-.642.316-1.275.463-1.916.26-.95.43-1.918.552-2.894.123-.907.263-1.81.333-2.723.05-1.347-.003-2.697-.026-4.045-.01-1.975-.134-3.947-.234-5.92a211.37 211.37 0 0 1-.188-5.189c0-1.858-.189-3.705-.406-5.547-.339-2.474-.764-4.937-1.184-7.398a68.05 68.05 0 0 1-.707-5.108 18.007 18.007 0 0 0-.238-1.72zm14.513 65.277c-.018.095-.058.302-.029.228.01-.026.01-.057.02-.086a.305.305 0 0 0 .01-.142zm-3.917 28.683c.147.875.291 1.687.439 2.565-.1-.683-.21-1.364-.328-2.045-.035-.174-.075-.346-.111-.52zm12.318 20.176c-.012.002-.021.007-.033.01-.16.03-.294.046-.442.069.181.125.371.225.55.359l-.075-.437zm-118.62 95.16c-.035.047-.068.095-.105.141.262.311.493.651.766.951.063-.087.166-.176.236-.263-.382-.372-.668-.648-.896-.829zm13.97 3.303c-.424.5-.815 1.028-1.159 1.586.383-.53.774-1.056 1.158-1.586z"  transform="translate(251.626 -49.228) scale(.32558)" id="axl-legs" class="fill-axlotl"/>
</svg>